STARTFONT 2.1
COMMENT
COMMENT Converted from OpenType font "verdana.ttf" by "C:\Programs\Develop\nds_ak_rpg\devkitARM\bin\otf2bdf.exe 3.0".
COMMENT
FONT -FreeType-Verdana-Medium-R-Normal--10-100-72-72-P-56-ISO10646-1
SIZE 10 72 72
FONTBOUNDINGBOX 15 12 -1 -2
STARTPROPERTIES 19
FOUNDRY "FreeType"
FAMILY_NAME "Verdana"
WEIGHT_NAME "Medium"
SLANT "R"
SETWIDTH_NAME "Normal"
ADD_STYLE_NAME ""
PIXEL_SIZE 10
POINT_SIZE 100
RESOLUTION_X 72
RESOLUTION_Y 72
SPACING "P"
AVERAGE_WIDTH 56
CHARSET_REGISTRY "ISO10646"
CHARSET_ENCODING "1"
FONT_ASCENT 10
FONT_DESCENT 2
COPYRIGHT "Typeface and data © 1996 Microsoft Corporation. All Rights Reserved"
_OTF_FONTFILE "verdana.ttf"
_OTF_PSNAME "Verdana"
ENDPROPERTIES
CHARS 680
STARTCHAR 0020
ENCODING 32
SWIDTH 400 0
DWIDTH 4 0
BBX 0 0 0 0
BITMAP
ENDCHAR
STARTCHAR 0021
ENCODING 33
SWIDTH 400 0
DWIDTH 4 0
BBX 1 7 2 0
BITMAP
80
80
80
80
80
00
80
ENDCHAR
STARTCHAR 0022
ENCODING 34
SWIDTH 500 0
DWIDTH 5 0
BBX 3 3 1 5
BITMAP
A0
A0
A0
ENDCHAR
STARTCHAR 0023
ENCODING 35
SWIDTH 800 0
DWIDTH 8 0
BBX 6 7 1 0
BITMAP
28
28
7C
50
F8
50
50
ENDCHAR
STARTCHAR 0024
ENCODING 36
SWIDTH 700 0
DWIDTH 7 0
BBX 5 10 1 -2
BITMAP
20
20
78
A0
60
30
28
F0
20
20
ENDCHAR
STARTCHAR 0025
ENCODING 37
SWIDTH 1100 0
DWIDTH 11 0
BBX 9 7 1 0
BITMAP
6200
9400
9400
6B00
1480
1480
2300
ENDCHAR
STARTCHAR 0026
ENCODING 38
SWIDTH 700 0
DWIDTH 7 0
BBX 6 7 1 0
BITMAP
60
90
90
64
94
88
74
ENDCHAR
STARTCHAR 0027
ENCODING 39
SWIDTH 300 0
DWIDTH 3 0
BBX 1 3 1 5
BITMAP
80
80
80
ENDCHAR
STARTCHAR 0028
ENCODING 40
SWIDTH 500 0
DWIDTH 5 0
BBX 3 10 1 -2
BITMAP
20
40
80
80
80
80
80
80
40
20
ENDCHAR
STARTCHAR 0029
ENCODING 41
SWIDTH 500 0
DWIDTH 5 0
BBX 3 10 1 -2
BITMAP
80
40
20
20
20
20
20
20
40
80
ENDCHAR
STARTCHAR 002A
ENCODING 42
SWIDTH 700 0
DWIDTH 7 0
BBX 5 5 1 3
BITMAP
20
A8
70
A8
20
ENDCHAR
STARTCHAR 002B
ENCODING 43
SWIDTH 800 0
DWIDTH 8 0
BBX 7 7 1 0
BITMAP
10
10
10
FE
10
10
10
ENDCHAR
STARTCHAR 002C
ENCODING 44
SWIDTH 400 0
DWIDTH 4 0
BBX 2 3 1 -1
BITMAP
40
40
80
ENDCHAR
STARTCHAR 002D
ENCODING 45
SWIDTH 500 0
DWIDTH 5 0
BBX 3 1 1 3
BITMAP
E0
ENDCHAR
STARTCHAR 002E
ENCODING 46
SWIDTH 400 0
DWIDTH 4 0
BBX 1 2 1 0
BITMAP
80
80
ENDCHAR
STARTCHAR 002F
ENCODING 47
SWIDTH 500 0
DWIDTH 5 0
BBX 4 9 0 -1
BITMAP
10
20
20
20
40
40
40
80
80
ENDCHAR
STARTCHAR 0030
ENCODING 48
SWIDTH 700 0
DWIDTH 7 0
BBX 5 7 1 0
BITMAP
70
88
88
88
88
88
70
ENDCHAR
STARTCHAR 0031
ENCODING 49
SWIDTH 700 0
DWIDTH 7 0
BBX 5 7 1 0
BITMAP
20
E0
20
20
20
20
F8
ENDCHAR
STARTCHAR 0032
ENCODING 50
SWIDTH 700 0
DWIDTH 7 0
BBX 5 7 1 0
BITMAP
70
88
08
10
20
40
F8
ENDCHAR
STARTCHAR 0033
ENCODING 51
SWIDTH 700 0
DWIDTH 7 0
BBX 5 7 1 0
BITMAP
70
88
08
30
08
88
70
ENDCHAR
STARTCHAR 0034
ENCODING 52
SWIDTH 700 0
DWIDTH 7 0
BBX 5 7 1 0
BITMAP
10
30
50
90
F8
10
10
ENDCHAR
STARTCHAR 0035
ENCODING 53
SWIDTH 700 0
DWIDTH 7 0
BBX 5 7 1 0
BITMAP
F8
80
F0
08
08
88
70
ENDCHAR
STARTCHAR 0036
ENCODING 54
SWIDTH 700 0
DWIDTH 7 0
BBX 5 7 1 0
BITMAP
30
40
80
F0
88
88
70
ENDCHAR
STARTCHAR 0037
ENCODING 55
SWIDTH 700 0
DWIDTH 7 0
BBX 5 7 1 0
BITMAP
F8
08
10
10
20
20
40
ENDCHAR
STARTCHAR 0038
ENCODING 56
SWIDTH 700 0
DWIDTH 7 0
BBX 5 7 1 0
BITMAP
70
88
88
70
88
88
70
ENDCHAR
STARTCHAR 0039
ENCODING 57
SWIDTH 700 0
DWIDTH 7 0
BBX 5 7 1 0
BITMAP
70
88
88
78
08
10
60
ENDCHAR
STARTCHAR 003A
ENCODING 58
SWIDTH 500 0
DWIDTH 5 0
BBX 1 5 2 0
BITMAP
80
80
00
80
80
ENDCHAR
STARTCHAR 003B
ENCODING 59
SWIDTH 500 0
DWIDTH 5 0
BBX 2 6 1 -1
BITMAP
40
40
00
40
40
80
ENDCHAR
STARTCHAR 003C
ENCODING 60
SWIDTH 800 0
DWIDTH 8 0
BBX 6 5 1 1
BITMAP
0C
30
C0
30
0C
ENDCHAR
STARTCHAR 003D
ENCODING 61
SWIDTH 800 0
DWIDTH 8 0
BBX 6 3 1 2
BITMAP
FC
00
FC
ENDCHAR
STARTCHAR 003E
ENCODING 62
SWIDTH 800 0
DWIDTH 8 0
BBX 6 5 1 1
BITMAP
C0
30
0C
30
C0
ENDCHAR
STARTCHAR 003F
ENCODING 63
SWIDTH 600 0
DWIDTH 6 0
BBX 4 7 1 0
BITMAP
E0
10
10
20
40
00
40
ENDCHAR
STARTCHAR 0040
ENCODING 64
SWIDTH 1000 0
DWIDTH 10 0
BBX 8 9 1 -2
BITMAP
3E
41
9D
A5
A5
A5
9A
40
3C
ENDCHAR
STARTCHAR 0041
ENCODING 65
SWIDTH 700 0
DWIDTH 7 0
BBX 7 7 0 0
BITMAP
10
28
28
44
7C
44
82
ENDCHAR
STARTCHAR 0042
ENCODING 66
SWIDTH 700 0
DWIDTH 7 0
BBX 5 7 1 0
BITMAP
E0
90
90
F0
88
88
F0
ENDCHAR
STARTCHAR 0043
ENCODING 67
SWIDTH 800 0
DWIDTH 8 0
BBX 6 7 1 0
BITMAP
38
44
80
80
80
44
38
ENDCHAR
STARTCHAR 0044
ENCODING 68
SWIDTH 800 0
DWIDTH 8 0
BBX 6 7 1 0
BITMAP
F0
88
84
84
84
88
F0
ENDCHAR
STARTCHAR 0045
ENCODING 69
SWIDTH 600 0
DWIDTH 6 0
BBX 4 7 1 0
BITMAP
F0
80
80
F0
80
80
F0
ENDCHAR
STARTCHAR 0046
ENCODING 70
SWIDTH 600 0
DWIDTH 6 0
BBX 5 7 1 0
BITMAP
F8
80
80
F0
80
80
80
ENDCHAR
STARTCHAR 0047
ENCODING 71
SWIDTH 800 0
DWIDTH 8 0
BBX 6 7 1 0
BITMAP
38
C4
80
9C
84
44
3C
ENDCHAR
STARTCHAR 0048
ENCODING 72
SWIDTH 800 0
DWIDTH 8 0
BBX 6 7 1 0
BITMAP
84
84
84
FC
84
84
84
ENDCHAR
STARTCHAR 0049
ENCODING 73
SWIDTH 500 0
DWIDTH 5 0
BBX 3 7 1 0
BITMAP
E0
40
40
40
40
40
E0
ENDCHAR
STARTCHAR 004A
ENCODING 74
SWIDTH 500 0
DWIDTH 5 0
BBX 4 7 0 0
BITMAP
30
10
10
10
10
10
E0
ENDCHAR
STARTCHAR 004B
ENCODING 75
SWIDTH 700 0
DWIDTH 7 0
BBX 6 7 1 0
BITMAP
88
90
A0
E0
90
88
84
ENDCHAR
STARTCHAR 004C
ENCODING 76
SWIDTH 600 0
DWIDTH 6 0
BBX 5 7 1 0
BITMAP
80
80
80
80
80
80
F8
ENDCHAR
STARTCHAR 004D
ENCODING 77
SWIDTH 900 0
DWIDTH 9 0
BBX 7 7 1 0
BITMAP
C6
C6
AA
AA
92
92
82
ENDCHAR
STARTCHAR 004E
ENCODING 78
SWIDTH 700 0
DWIDTH 7 0
BBX 5 7 1 0
BITMAP
88
C8
A8
A8
98
88
88
ENDCHAR
STARTCHAR 004F
ENCODING 79
SWIDTH 900 0
DWIDTH 9 0
BBX 7 7 1 0
BITMAP
38
44
82
82
82
44
38
ENDCHAR
STARTCHAR 0050
ENCODING 80
SWIDTH 700 0
DWIDTH 7 0
BBX 5 7 1 0
BITMAP
F0
88
88
88
F0
80
80
ENDCHAR
STARTCHAR 0051
ENCODING 81
SWIDTH 900 0
DWIDTH 9 0
BBX 7 9 1 -2
BITMAP
38
44
82
82
82
44
38
08
06
ENDCHAR
STARTCHAR 0052
ENCODING 82
SWIDTH 800 0
DWIDTH 8 0
BBX 6 7 1 0
BITMAP
F0
88
88
F0
90
88
84
ENDCHAR
STARTCHAR 0053
ENCODING 83
SWIDTH 700 0
DWIDTH 7 0
BBX 5 7 1 0
BITMAP
70
88
80
70
08
88
70
ENDCHAR
STARTCHAR 0054
ENCODING 84
SWIDTH 700 0
DWIDTH 7 0
BBX 7 7 0 0
BITMAP
FE
10
10
10
10
10
10
ENDCHAR
STARTCHAR 0055
ENCODING 85
SWIDTH 800 0
DWIDTH 8 0
BBX 6 7 1 0
BITMAP
84
84
84
84
84
84
78
ENDCHAR
STARTCHAR 0056
ENCODING 86
SWIDTH 700 0
DWIDTH 7 0
BBX 7 7 0 0
BITMAP
82
44
44
44
28
28
10
ENDCHAR
STARTCHAR 0057
ENCODING 87
SWIDTH 1100 0
DWIDTH 11 0
BBX 9 7 1 0
BITMAP
8880
8880
5500
5500
5500
2200
2200
ENDCHAR
STARTCHAR 0058
ENCODING 88
SWIDTH 700 0
DWIDTH 7 0
BBX 5 7 1 0
BITMAP
88
88
50
20
50
88
88
ENDCHAR
STARTCHAR 0059
ENCODING 89
SWIDTH 700 0
DWIDTH 7 0
BBX 7 7 0 0
BITMAP
82
44
28
10
10
10
10
ENDCHAR
STARTCHAR 005A
ENCODING 90
SWIDTH 700 0
DWIDTH 7 0
BBX 5 7 1 0
BITMAP
F8
08
10
20
40
80
F8
ENDCHAR
STARTCHAR 005B
ENCODING 91
SWIDTH 500 0
DWIDTH 5 0
BBX 3 10 1 -2
BITMAP
E0
80
80
80
80
80
80
80
80
E0
ENDCHAR
STARTCHAR 005C
ENCODING 92
SWIDTH 500 0
DWIDTH 5 0
BBX 4 9 0 -1
BITMAP
80
80
40
40
40
20
20
20
10
ENDCHAR
STARTCHAR 005D
ENCODING 93
SWIDTH 500 0
DWIDTH 5 0
BBX 3 10 1 -2
BITMAP
E0
20
20
20
20
20
20
20
20
E0
ENDCHAR
STARTCHAR 005E
ENCODING 94
SWIDTH 800 0
DWIDTH 8 0
BBX 6 3 1 4
BITMAP
30
48
84
ENDCHAR
STARTCHAR 005F
ENCODING 95
SWIDTH 600 0
DWIDTH 6 0
BBX 6 1 0 -2
BITMAP
FC
ENDCHAR
STARTCHAR 0060
ENCODING 96
SWIDTH 600 0
DWIDTH 6 0
BBX 2 2 2 6
BITMAP
80
40
ENDCHAR
STARTCHAR 0061
ENCODING 97
SWIDTH 700 0
DWIDTH 7 0
BBX 5 5 1 0
BITMAP
70
08
78
88
78
ENDCHAR
STARTCHAR 0062
ENCODING 98
SWIDTH 700 0
DWIDTH 7 0
BBX 5 8 1 0
BITMAP
80
80
80
F0
88
88
88
F0
ENDCHAR
STARTCHAR 0063
ENCODING 99
SWIDTH 500 0
DWIDTH 5 0
BBX 4 5 1 0
BITMAP
70
80
80
80
70
ENDCHAR
STARTCHAR 0064
ENCODING 100
SWIDTH 700 0
DWIDTH 7 0
BBX 5 8 1 0
BITMAP
08
08
08
78
88
88
88
78
ENDCHAR
STARTCHAR 0065
ENCODING 101
SWIDTH 700 0
DWIDTH 7 0
BBX 5 5 1 0
BITMAP
70
88
F8
80
78
ENDCHAR
STARTCHAR 0066
ENCODING 102
SWIDTH 400 0
DWIDTH 4 0
BBX 4 8 0 0
BITMAP
30
40
40
F0
40
40
40
40
ENDCHAR
STARTCHAR 0067
ENCODING 103
SWIDTH 700 0
DWIDTH 7 0
BBX 5 7 1 -2
BITMAP
78
88
88
88
78
08
70
ENDCHAR
STARTCHAR 0068
ENCODING 104
SWIDTH 700 0
DWIDTH 7 0
BBX 5 8 1 0
BITMAP
80
80
80
F0
88
88
88
88
ENDCHAR
STARTCHAR 0069
ENCODING 105
SWIDTH 300 0
DWIDTH 3 0
BBX 1 7 1 0
BITMAP
80
00
80
80
80
80
80
ENDCHAR
STARTCHAR 006A
ENCODING 106
SWIDTH 300 0
DWIDTH 3 0
BBX 3 9 -1 -2
BITMAP
20
00
60
20
20
20
20
20
C0
ENDCHAR
STARTCHAR 006B
ENCODING 107
SWIDTH 700 0
DWIDTH 7 0
BBX 5 8 1 0
BITMAP
80
80
80
90
A0
E0
90
88
ENDCHAR
STARTCHAR 006C
ENCODING 108
SWIDTH 300 0
DWIDTH 3 0
BBX 1 8 1 0
BITMAP
80
80
80
80
80
80
80
80
ENDCHAR
STARTCHAR 006D
ENCODING 109
SWIDTH 1100 0
DWIDTH 11 0
BBX 9 5 1 0
BITMAP
F700
8880
8880
8880
8880
ENDCHAR
STARTCHAR 006E
ENCODING 110
SWIDTH 700 0
DWIDTH 7 0
BBX 5 5 1 0
BITMAP
F0
88
88
88
88
ENDCHAR
STARTCHAR 006F
ENCODING 111
SWIDTH 700 0
DWIDTH 7 0
BBX 5 5 1 0
BITMAP
70
88
88
88
70
ENDCHAR
STARTCHAR 0070
ENCODING 112
SWIDTH 700 0
DWIDTH 7 0
BBX 5 7 1 -2
BITMAP
F0
88
88
88
F0
80
80
ENDCHAR
STARTCHAR 0071
ENCODING 113
SWIDTH 700 0
DWIDTH 7 0
BBX 5 7 1 -2
BITMAP
78
88
88
88
78
08
08
ENDCHAR
STARTCHAR 0072
ENCODING 114
SWIDTH 400 0
DWIDTH 4 0
BBX 3 5 1 0
BITMAP
A0
C0
80
80
80
ENDCHAR
STARTCHAR 0073
ENCODING 115
SWIDTH 600 0
DWIDTH 6 0
BBX 4 5 1 0
BITMAP
70
80
60
10
E0
ENDCHAR
STARTCHAR 0074
ENCODING 116
SWIDTH 400 0
DWIDTH 4 0
BBX 4 7 0 0
BITMAP
40
40
F0
40
40
40
30
ENDCHAR
STARTCHAR 0075
ENCODING 117
SWIDTH 700 0
DWIDTH 7 0
BBX 5 5 1 0
BITMAP
88
88
88
88
78
ENDCHAR
STARTCHAR 0076
ENCODING 118
SWIDTH 600 0
DWIDTH 6 0
BBX 4 5 1 0
BITMAP
90
90
90
60
60
ENDCHAR
STARTCHAR 0077
ENCODING 119
SWIDTH 700 0
DWIDTH 7 0
BBX 5 5 1 0
BITMAP
88
A8
A8
50
50
ENDCHAR
STARTCHAR 0078
ENCODING 120
SWIDTH 700 0
DWIDTH 7 0
BBX 5 5 1 0
BITMAP
88
50
20
50
88
ENDCHAR
STARTCHAR 0079
ENCODING 121
SWIDTH 600 0
DWIDTH 6 0
BBX 4 7 1 -2
BITMAP
90
90
90
60
20
40
40
ENDCHAR
STARTCHAR 007A
ENCODING 122
SWIDTH 600 0
DWIDTH 6 0
BBX 4 5 1 0
BITMAP
F0
20
40
80
F0
ENDCHAR
STARTCHAR 007B
ENCODING 123
SWIDTH 600 0
DWIDTH 6 0
BBX 5 10 1 -2
BITMAP
18
20
20
20
20
C0
20
20
20
18
ENDCHAR
STARTCHAR 007C
ENCODING 124
SWIDTH 500 0
DWIDTH 5 0
BBX 1 10 2 -2
BITMAP
80
80
80
80
80
80
80
80
80
80
ENDCHAR
STARTCHAR 007D
ENCODING 125
SWIDTH 600 0
DWIDTH 6 0
BBX 5 10 0 -2
BITMAP
C0
20
20
20
20
18
20
20
20
C0
ENDCHAR
STARTCHAR 007E
ENCODING 126
SWIDTH 800 0
DWIDTH 8 0
BBX 6 3 1 2
BITMAP
44
B4
98
ENDCHAR
STARTCHAR 00A0
ENCODING 160
SWIDTH 400 0
DWIDTH 4 0
BBX 0 0 0 0
BITMAP
ENDCHAR
STARTCHAR 00A1
ENCODING 161
SWIDTH 400 0
DWIDTH 4 0
BBX 1 7 1 0
BITMAP
80
00
80
80
80
80
80
ENDCHAR
STARTCHAR 00A2
ENCODING 162
SWIDTH 700 0
DWIDTH 7 0
BBX 5 9 1 -2
BITMAP
20
20
78
A0
A0
A0
78
20
20
ENDCHAR
STARTCHAR 00A3
ENCODING 163
SWIDTH 700 0
DWIDTH 7 0
BBX 5 7 1 0
BITMAP
38
40
40
F0
40
40
F8
ENDCHAR
STARTCHAR 00A4
ENCODING 164
SWIDTH 700 0
DWIDTH 7 0
BBX 5 5 1 1
BITMAP
88
70
50
70
88
ENDCHAR
STARTCHAR 00A5
ENCODING 165
SWIDTH 700 0
DWIDTH 7 0
BBX 5 7 1 0
BITMAP
88
88
50
20
F8
20
20
ENDCHAR
STARTCHAR 00A6
ENCODING 166
SWIDTH 500 0
DWIDTH 5 0
BBX 1 10 2 -2
BITMAP
80
80
80
80
00
00
80
80
80
80
ENDCHAR
STARTCHAR 00A7
ENCODING 167
SWIDTH 600 0
DWIDTH 6 0
BBX 4 8 1 -1
BITMAP
70
80
60
90
90
60
10
E0
ENDCHAR
STARTCHAR 00A8
ENCODING 168
SWIDTH 600 0
DWIDTH 6 0
BBX 3 1 2 6
BITMAP
A0
ENDCHAR
STARTCHAR 00A9
ENCODING 169
SWIDTH 1000 0
DWIDTH 10 0
BBX 8 8 1 -1
BITMAP
3C
42
9D
A1
A1
9D
42
3C
ENDCHAR
STARTCHAR 00AA
ENCODING 170
SWIDTH 500 0
DWIDTH 5 0
BBX 4 5 1 2
BITMAP
E0
10
70
90
70
ENDCHAR
STARTCHAR 00AB
ENCODING 171
SWIDTH 600 0
DWIDTH 6 0
BBX 5 5 1 1
BITMAP
28
50
A0
50
28
ENDCHAR
STARTCHAR 00AC
ENCODING 172
SWIDTH 800 0
DWIDTH 8 0
BBX 6 4 1 0
BITMAP
FC
04
04
04
ENDCHAR
STARTCHAR 00AD
ENCODING 173
SWIDTH 500 0
DWIDTH 5 0
BBX 3 1 1 3
BITMAP
E0
ENDCHAR
STARTCHAR 00AE
ENCODING 174
SWIDTH 1000 0
DWIDTH 10 0
BBX 8 8 1 -1
BITMAP
3C
42
B9
A5
B9
A5
42
3C
ENDCHAR
STARTCHAR 00AF
ENCODING 175
SWIDTH 600 0
DWIDTH 6 0
BBX 6 1 0 8
BITMAP
FC
ENDCHAR
STARTCHAR 00B0
ENCODING 176
SWIDTH 500 0
DWIDTH 5 0
BBX 4 4 1 3
BITMAP
60
90
90
60
ENDCHAR
STARTCHAR 00B1
ENCODING 177
SWIDTH 800 0
DWIDTH 8 0
BBX 7 7 1 0
BITMAP
10
10
10
FE
10
10
FE
ENDCHAR
STARTCHAR 00B2
ENCODING 178
SWIDTH 500 0
DWIDTH 5 0
BBX 3 4 1 3
BITMAP
E0
20
40
E0
ENDCHAR
STARTCHAR 00B3
ENCODING 179
SWIDTH 500 0
DWIDTH 5 0
BBX 3 4 1 3
BITMAP
E0
40
20
E0
ENDCHAR
STARTCHAR 00B4
ENCODING 180
SWIDTH 600 0
DWIDTH 6 0
BBX 2 2 3 6
BITMAP
40
80
ENDCHAR
STARTCHAR 00B5
ENCODING 181
SWIDTH 700 0
DWIDTH 7 0
BBX 5 7 1 -2
BITMAP
88
88
88
88
F8
80
80
ENDCHAR
STARTCHAR 00B6
ENCODING 182
SWIDTH 700 0
DWIDTH 7 0
BBX 5 9 1 -2
BITMAP
78
E8
E8
68
28
28
28
28
28
ENDCHAR
STARTCHAR 00B7
ENCODING 183
SWIDTH 400 0
DWIDTH 4 0
BBX 1 2 1 3
BITMAP
80
80
ENDCHAR
STARTCHAR 00B8
ENCODING 184
SWIDTH 600 0
DWIDTH 6 0
BBX 3 2 2 -2
BITMAP
20
C0
ENDCHAR
STARTCHAR 00B9
ENCODING 185
SWIDTH 500 0
DWIDTH 5 0
BBX 3 4 1 3
BITMAP
40
C0
40
E0
ENDCHAR
STARTCHAR 00BA
ENCODING 186
SWIDTH 500 0
DWIDTH 5 0
BBX 4 5 1 2
BITMAP
60
90
90
90
60
ENDCHAR
STARTCHAR 00BB
ENCODING 187
SWIDTH 600 0
DWIDTH 6 0
BBX 5 5 1 1
BITMAP
A0
50
28
50
A0
ENDCHAR
STARTCHAR 00BC
ENCODING 188
SWIDTH 1000 0
DWIDTH 10 0
BBX 10 7 0 0
BITMAP
4200
C400
4400
4980
1280
13C0
2080
ENDCHAR
STARTCHAR 00BD
ENCODING 189
SWIDTH 1000 0
DWIDTH 10 0
BBX 9 7 0 0
BITMAP
4200
C400
4400
4B80
1080
1100
2380
ENDCHAR
STARTCHAR 00BE
ENCODING 190
SWIDTH 1000 0
DWIDTH 10 0
BBX 8 7 1 0
BITMAP
E4
48
28
F6
2A
2F
42
ENDCHAR
STARTCHAR 00BF
ENCODING 191
SWIDTH 600 0
DWIDTH 6 0
BBX 4 7 1 0
BITMAP
20
00
20
40
80
80
70
ENDCHAR
STARTCHAR 00C0
ENCODING 192
SWIDTH 700 0
DWIDTH 7 0
BBX 7 10 0 0
BITMAP
10
08
00
10
28
28
44
7C
44
82
ENDCHAR
STARTCHAR 00C1
ENCODING 193
SWIDTH 700 0
DWIDTH 7 0
BBX 7 10 0 0
BITMAP
08
10
00
10
28
28
44
7C
44
82
ENDCHAR
STARTCHAR 00C2
ENCODING 194
SWIDTH 700 0
DWIDTH 7 0
BBX 7 10 0 0
BITMAP
10
28
00
10
28
28
44
7C
44
82
ENDCHAR
STARTCHAR 00C3
ENCODING 195
SWIDTH 700 0
DWIDTH 7 0
BBX 7 10 0 0
BITMAP
34
2C
00
10
28
28
44
7C
44
82
ENDCHAR
STARTCHAR 00C4
ENCODING 196
SWIDTH 700 0
DWIDTH 7 0
BBX 7 9 0 0
BITMAP
28
00
10
28
28
44
7C
44
82
ENDCHAR
STARTCHAR 00C5
ENCODING 197
SWIDTH 700 0
DWIDTH 7 0
BBX 7 10 0 0
BITMAP
10
28
28
10
28
28
44
7C
44
82
ENDCHAR
STARTCHAR 00C6
ENCODING 198
SWIDTH 1000 0
DWIDTH 10 0
BBX 8 7 1 0
BITMAP
3F
48
48
8F
F8
88
8F
ENDCHAR
STARTCHAR 00C7
ENCODING 199
SWIDTH 800 0
DWIDTH 8 0
BBX 6 9 1 -2
BITMAP
38
44
80
80
80
44
38
10
60
ENDCHAR
STARTCHAR 00C8
ENCODING 200
SWIDTH 600 0
DWIDTH 6 0
BBX 4 10 1 0
BITMAP
40
20
00
F0
80
80
F0
80
80
F0
ENDCHAR
STARTCHAR 00C9
ENCODING 201
SWIDTH 600 0
DWIDTH 6 0
BBX 4 10 1 0
BITMAP
10
20
00
F0
80
80
F0
80
80
F0
ENDCHAR
STARTCHAR 00CA
ENCODING 202
SWIDTH 600 0
DWIDTH 6 0
BBX 4 10 1 0
BITMAP
20
50
00
F0
80
80
F0
80
80
F0
ENDCHAR
STARTCHAR 00CB
ENCODING 203
SWIDTH 600 0
DWIDTH 6 0
BBX 4 9 1 0
BITMAP
50
00
F0
80
80
F0
80
80
F0
ENDCHAR
STARTCHAR 00CC
ENCODING 204
SWIDTH 500 0
DWIDTH 5 0
BBX 3 10 1 0
BITMAP
80
40
00
E0
40
40
40
40
40
E0
ENDCHAR
STARTCHAR 00CD
ENCODING 205
SWIDTH 500 0
DWIDTH 5 0
BBX 3 10 1 0
BITMAP
20
40
00
E0
40
40
40
40
40
E0
ENDCHAR
STARTCHAR 00CE
ENCODING 206
SWIDTH 500 0
DWIDTH 5 0
BBX 3 10 1 0
BITMAP
40
A0
00
E0
40
40
40
40
40
E0
ENDCHAR
STARTCHAR 00CF
ENCODING 207
SWIDTH 500 0
DWIDTH 5 0
BBX 3 9 1 0
BITMAP
A0
00
E0
40
40
40
40
40
E0
ENDCHAR
STARTCHAR 00D0
ENCODING 208
SWIDTH 800 0
DWIDTH 8 0
BBX 7 7 0 0
BITMAP
78
44
42
F2
42
44
78
ENDCHAR
STARTCHAR 00D1
ENCODING 209
SWIDTH 700 0
DWIDTH 7 0
BBX 5 10 1 0
BITMAP
68
58
00
88
C8
A8
A8
98
88
88
ENDCHAR
STARTCHAR 00D2
ENCODING 210
SWIDTH 900 0
DWIDTH 9 0
BBX 7 10 1 0
BITMAP
20
10
00
38
44
82
82
82
44
38
ENDCHAR
STARTCHAR 00D3
ENCODING 211
SWIDTH 900 0
DWIDTH 9 0
BBX 7 10 1 0
BITMAP
08
10
00
38
44
82
82
82
44
38
ENDCHAR
STARTCHAR 00D4
ENCODING 212
SWIDTH 900 0
DWIDTH 9 0
BBX 7 10 1 0
BITMAP
10
28
00
38
44
82
82
82
44
38
ENDCHAR
STARTCHAR 00D5
ENCODING 213
SWIDTH 900 0
DWIDTH 9 0
BBX 7 10 1 0
BITMAP
34
2C
00
38
44
82
82
82
44
38
ENDCHAR
STARTCHAR 00D6
ENCODING 214
SWIDTH 900 0
DWIDTH 9 0
BBX 7 9 1 0
BITMAP
28
00
38
44
82
82
82
44
38
ENDCHAR
STARTCHAR 00D7
ENCODING 215
SWIDTH 800 0
DWIDTH 8 0
BBX 5 5 2 1
BITMAP
88
50
20
50
88
ENDCHAR
STARTCHAR 00D8
ENCODING 216
SWIDTH 900 0
DWIDTH 9 0
BBX 7 7 1 1
BITMAP
3A
44
8A
92
A2
44
B8
ENDCHAR
STARTCHAR 00D9
ENCODING 217
SWIDTH 800 0
DWIDTH 8 0
BBX 6 10 1 0
BITMAP
20
10
00
84
84
84
84
84
84
78
ENDCHAR
STARTCHAR 00DA
ENCODING 218
SWIDTH 800 0
DWIDTH 8 0
BBX 6 10 1 0
BITMAP
08
10
00
84
84
84
84
84
84
78
ENDCHAR
STARTCHAR 00DB
ENCODING 219
SWIDTH 800 0
DWIDTH 8 0
BBX 6 10 1 0
BITMAP
10
28
00
84
84
84
84
84
84
78
ENDCHAR
STARTCHAR 00DC
ENCODING 220
SWIDTH 800 0
DWIDTH 8 0
BBX 6 9 1 0
BITMAP
48
00
84
84
84
84
84
84
78
ENDCHAR
STARTCHAR 00DD
ENCODING 221
SWIDTH 700 0
DWIDTH 7 0
BBX 7 10 0 0
BITMAP
08
10
00
82
44
28
10
10
10
10
ENDCHAR
STARTCHAR 00DE
ENCODING 222
SWIDTH 700 0
DWIDTH 7 0
BBX 5 7 1 0
BITMAP
80
F0
88
88
F0
80
80
ENDCHAR
STARTCHAR 00DF
ENCODING 223
SWIDTH 600 0
DWIDTH 6 0
BBX 4 8 1 0
BITMAP
60
90
90
A0
90
90
90
A0
ENDCHAR
STARTCHAR 00E0
ENCODING 224
SWIDTH 700 0
DWIDTH 7 0
BBX 5 8 1 0
BITMAP
20
10
00
70
08
78
88
78
ENDCHAR
STARTCHAR 00E1
ENCODING 225
SWIDTH 700 0
DWIDTH 7 0
BBX 5 8 1 0
BITMAP
08
10
00
70
08
78
88
78
ENDCHAR
STARTCHAR 00E2
ENCODING 226
SWIDTH 700 0
DWIDTH 7 0
BBX 5 8 1 0
BITMAP
10
28
00
70
08
78
88
78
ENDCHAR
STARTCHAR 00E3
ENCODING 227
SWIDTH 700 0
DWIDTH 7 0
BBX 5 8 1 0
BITMAP
68
58
00
70
08
78
88
78
ENDCHAR
STARTCHAR 00E4
ENCODING 228
SWIDTH 700 0
DWIDTH 7 0
BBX 5 7 1 0
BITMAP
50
00
70
08
78
88
78
ENDCHAR
STARTCHAR 00E5
ENCODING 229
SWIDTH 700 0
DWIDTH 7 0
BBX 5 9 1 0
BITMAP
70
50
70
00
70
08
78
88
78
ENDCHAR
STARTCHAR 00E6
ENCODING 230
SWIDTH 1000 0
DWIDTH 10 0
BBX 8 5 1 0
BITMAP
EE
11
7F
90
6F
ENDCHAR
STARTCHAR 00E7
ENCODING 231
SWIDTH 500 0
DWIDTH 5 0
BBX 4 7 1 -2
BITMAP
70
80
80
80
70
20
C0
ENDCHAR
STARTCHAR 00E8
ENCODING 232
SWIDTH 700 0
DWIDTH 7 0
BBX 5 8 1 0
BITMAP
40
20
00
70
88
F8
80
78
ENDCHAR
STARTCHAR 00E9
ENCODING 233
SWIDTH 700 0
DWIDTH 7 0
BBX 5 8 1 0
BITMAP
10
20
00
70
88
F8
80
78
ENDCHAR
STARTCHAR 00EA
ENCODING 234
SWIDTH 700 0
DWIDTH 7 0
BBX 5 8 1 0
BITMAP
20
50
00
70
88
F8
80
78
ENDCHAR
STARTCHAR 00EB
ENCODING 235
SWIDTH 700 0
DWIDTH 7 0
BBX 5 7 1 0
BITMAP
50
00
70
88
F8
80
78
ENDCHAR
STARTCHAR 00EC
ENCODING 236
SWIDTH 300 0
DWIDTH 3 0
BBX 2 8 0 0
BITMAP
80
40
00
40
40
40
40
40
ENDCHAR
STARTCHAR 00ED
ENCODING 237
SWIDTH 300 0
DWIDTH 3 0
BBX 2 8 1 0
BITMAP
40
80
00
80
80
80
80
80
ENDCHAR
STARTCHAR 00EE
ENCODING 238
SWIDTH 300 0
DWIDTH 3 0
BBX 3 8 0 0
BITMAP
40
A0
00
40
40
40
40
40
ENDCHAR
STARTCHAR 00EF
ENCODING 239
SWIDTH 300 0
DWIDTH 3 0
BBX 3 7 0 0
BITMAP
A0
00
40
40
40
40
40
ENDCHAR
STARTCHAR 00F0
ENCODING 240
SWIDTH 600 0
DWIDTH 6 0
BBX 5 7 1 0
BITMAP
30
50
08
78
88
88
70
ENDCHAR
STARTCHAR 00F1
ENCODING 241
SWIDTH 700 0
DWIDTH 7 0
BBX 5 8 1 0
BITMAP
68
58
00
F0
88
88
88
88
ENDCHAR
STARTCHAR 00F2
ENCODING 242
SWIDTH 700 0
DWIDTH 7 0
BBX 5 8 1 0
BITMAP
40
20
00
70
88
88
88
70
ENDCHAR
STARTCHAR 00F3
ENCODING 243
SWIDTH 700 0
DWIDTH 7 0
BBX 5 8 1 0
BITMAP
10
20
00
70
88
88
88
70
ENDCHAR
STARTCHAR 00F4
ENCODING 244
SWIDTH 700 0
DWIDTH 7 0
BBX 5 8 1 0
BITMAP
20
50
00
70
88
88
88
70
ENDCHAR
STARTCHAR 00F5
ENCODING 245
SWIDTH 700 0
DWIDTH 7 0
BBX 5 8 1 0
BITMAP
68
58
00
70
88
88
88
70
ENDCHAR
STARTCHAR 00F6
ENCODING 246
SWIDTH 700 0
DWIDTH 7 0
BBX 5 7 1 0
BITMAP
50
00
70
88
88
88
70
ENDCHAR
STARTCHAR 00F7
ENCODING 247
SWIDTH 800 0
DWIDTH 8 0
BBX 7 7 1 0
BITMAP
10
10
00
FE
00
10
10
ENDCHAR
STARTCHAR 00F8
ENCODING 248
SWIDTH 700 0
DWIDTH 7 0
BBX 5 7 1 -1
BITMAP
08
70
98
A8
C8
70
80
ENDCHAR
STARTCHAR 00F9
ENCODING 249
SWIDTH 700 0
DWIDTH 7 0
BBX 5 8 1 0
BITMAP
40
20
00
88
88
88
88
78
ENDCHAR
STARTCHAR 00FA
ENCODING 250
SWIDTH 700 0
DWIDTH 7 0
BBX 5 8 1 0
BITMAP
10
20
00
88
88
88
88
78
ENDCHAR
STARTCHAR 00FB
ENCODING 251
SWIDTH 700 0
DWIDTH 7 0
BBX 5 8 1 0
BITMAP
20
50
00
88
88
88
88
78
ENDCHAR
STARTCHAR 00FC
ENCODING 252
SWIDTH 700 0
DWIDTH 7 0
BBX 5 7 1 0
BITMAP
50
00
88
88
88
88
78
ENDCHAR
STARTCHAR 00FD
ENCODING 253
SWIDTH 600 0
DWIDTH 6 0
BBX 4 10 1 -2
BITMAP
10
20
00
90
90
90
60
20
40
40
ENDCHAR
STARTCHAR 00FE
ENCODING 254
SWIDTH 700 0
DWIDTH 7 0
BBX 5 10 1 -2
BITMAP
80
80
80
F0
88
88
88
F0
80
80
ENDCHAR
STARTCHAR 00FF
ENCODING 255
SWIDTH 600 0
DWIDTH 6 0
BBX 4 9 1 -2
BITMAP
90
00
90
90
90
60
20
40
40
ENDCHAR
STARTCHAR 0100
ENCODING 256
SWIDTH 700 0
DWIDTH 7 0
BBX 7 9 0 0
BITMAP
3C
00
10
28
28
44
7C
44
82
ENDCHAR
STARTCHAR 0101
ENCODING 257
SWIDTH 700 0
DWIDTH 7 0
BBX 5 7 1 0
BITMAP
78
00
70
08
78
88
78
ENDCHAR
STARTCHAR 0102
ENCODING 258
SWIDTH 700 0
DWIDTH 7 0
BBX 7 10 0 0
BITMAP
24
18
00
10
28
28
44
7C
44
82
ENDCHAR
STARTCHAR 0103
ENCODING 259
SWIDTH 700 0
DWIDTH 7 0
BBX 5 8 1 0
BITMAP
48
30
00
70
08
78
88
78
ENDCHAR
STARTCHAR 0104
ENCODING 260
SWIDTH 700 0
DWIDTH 7 0
BBX 8 9 0 -2
BITMAP
10
28
28
44
7C
44
82
02
01
ENDCHAR
STARTCHAR 0105
ENCODING 261
SWIDTH 700 0
DWIDTH 7 0
BBX 6 7 1 -2
BITMAP
70
08
78
88
78
08
04
ENDCHAR
STARTCHAR 0106
ENCODING 262
SWIDTH 800 0
DWIDTH 8 0
BBX 6 10 1 0
BITMAP
08
10
00
38
44
80
80
80
44
38
ENDCHAR
STARTCHAR 0107
ENCODING 263
SWIDTH 500 0
DWIDTH 5 0
BBX 4 8 1 0
BITMAP
10
20
00
70
80
80
80
70
ENDCHAR
STARTCHAR 0108
ENCODING 264
SWIDTH 800 0
DWIDTH 8 0
BBX 6 10 1 0
BITMAP
10
28
00
38
44
80
80
80
44
38
ENDCHAR
STARTCHAR 0109
ENCODING 265
SWIDTH 500 0
DWIDTH 5 0
BBX 4 8 1 0
BITMAP
20
50
00
70
80
80
80
70
ENDCHAR
STARTCHAR 010A
ENCODING 266
SWIDTH 800 0
DWIDTH 8 0
BBX 6 9 1 0
BITMAP
10
00
38
44
80
80
80
44
38
ENDCHAR
STARTCHAR 010B
ENCODING 267
SWIDTH 500 0
DWIDTH 5 0
BBX 4 7 1 0
BITMAP
20
00
70
80
80
80
70
ENDCHAR
STARTCHAR 010C
ENCODING 268
SWIDTH 800 0
DWIDTH 8 0
BBX 6 10 1 0
BITMAP
28
10
00
38
44
80
80
80
44
38
ENDCHAR
STARTCHAR 010D
ENCODING 269
SWIDTH 500 0
DWIDTH 5 0
BBX 4 8 1 0
BITMAP
50
20
00
70
80
80
80
70
ENDCHAR
STARTCHAR 010E
ENCODING 270
SWIDTH 800 0
DWIDTH 8 0
BBX 6 10 1 0
BITMAP
50
20
00
F0
88
84
84
84
88
F0
ENDCHAR
STARTCHAR 010F
ENCODING 271
SWIDTH 700 0
DWIDTH 7 0
BBX 8 8 1 0
BITMAP
09
0A
08
78
88
88
88
78
ENDCHAR
STARTCHAR 0110
ENCODING 272
SWIDTH 800 0
DWIDTH 8 0
BBX 7 7 0 0
BITMAP
78
44
42
F2
42
44
78
ENDCHAR
STARTCHAR 0111
ENCODING 273
SWIDTH 700 0
DWIDTH 7 0
BBX 6 8 1 0
BITMAP
08
3C
08
78
88
88
88
78
ENDCHAR
STARTCHAR 0112
ENCODING 274
SWIDTH 600 0
DWIDTH 6 0
BBX 4 9 1 0
BITMAP
F0
00
F0
80
80
F0
80
80
F0
ENDCHAR
STARTCHAR 0113
ENCODING 275
SWIDTH 700 0
DWIDTH 7 0
BBX 5 7 1 0
BITMAP
78
00
70
88
F8
80
78
ENDCHAR
STARTCHAR 0114
ENCODING 276
SWIDTH 600 0
DWIDTH 6 0
BBX 4 10 1 0
BITMAP
90
60
00
F0
80
80
F0
80
80
F0
ENDCHAR
STARTCHAR 0115
ENCODING 277
SWIDTH 700 0
DWIDTH 7 0
BBX 5 8 1 0
BITMAP
48
30
00
70
88
F8
80
78
ENDCHAR
STARTCHAR 0116
ENCODING 278
SWIDTH 600 0
DWIDTH 6 0
BBX 4 9 1 0
BITMAP
20
00
F0
80
80
F0
80
80
F0
ENDCHAR
STARTCHAR 0117
ENCODING 279
SWIDTH 700 0
DWIDTH 7 0
BBX 5 7 1 0
BITMAP
20
00
70
88
F8
80
78
ENDCHAR
STARTCHAR 0118
ENCODING 280
SWIDTH 600 0
DWIDTH 6 0
BBX 4 9 1 -2
BITMAP
F0
80
80
F0
80
80
F0
20
10
ENDCHAR
STARTCHAR 0119
ENCODING 281
SWIDTH 700 0
DWIDTH 7 0
BBX 5 7 1 -2
BITMAP
70
88
F8
80
78
10
18
ENDCHAR
STARTCHAR 011A
ENCODING 282
SWIDTH 600 0
DWIDTH 6 0
BBX 4 10 1 0
BITMAP
50
20
00
F0
80
80
F0
80
80
F0
ENDCHAR
STARTCHAR 011B
ENCODING 283
SWIDTH 700 0
DWIDTH 7 0
BBX 5 8 1 0
BITMAP
50
20
00
70
88
F8
80
78
ENDCHAR
STARTCHAR 011C
ENCODING 284
SWIDTH 800 0
DWIDTH 8 0
BBX 6 10 1 0
BITMAP
10
28
00
38
C4
80
9C
84
44
3C
ENDCHAR
STARTCHAR 011D
ENCODING 285
SWIDTH 700 0
DWIDTH 7 0
BBX 5 10 1 -2
BITMAP
20
50
00
78
88
88
88
78
08
70
ENDCHAR
STARTCHAR 011E
ENCODING 286
SWIDTH 800 0
DWIDTH 8 0
BBX 6 10 1 0
BITMAP
48
30
00
38
C4
80
9C
84
44
3C
ENDCHAR
STARTCHAR 011F
ENCODING 287
SWIDTH 700 0
DWIDTH 7 0
BBX 5 10 1 -2
BITMAP
48
30
00
78
88
88
88
78
08
70
ENDCHAR
STARTCHAR 0120
ENCODING 288
SWIDTH 800 0
DWIDTH 8 0
BBX 6 9 1 0
BITMAP
10
00
38
C4
80
9C
84
44
3C
ENDCHAR
STARTCHAR 0121
ENCODING 289
SWIDTH 700 0
DWIDTH 7 0
BBX 5 9 1 -2
BITMAP
20
00
78
88
88
88
78
08
70
ENDCHAR
STARTCHAR 0122
ENCODING 290
SWIDTH 800 0
DWIDTH 8 0
BBX 6 9 1 -2
BITMAP
38
C4
80
9C
84
44
3C
08
30
ENDCHAR
STARTCHAR 0123
ENCODING 291
SWIDTH 700 0
DWIDTH 7 0
BBX 5 10 1 -2
BITMAP
10
20
00
78
88
88
88
78
08
70
ENDCHAR
STARTCHAR 0124
ENCODING 292
SWIDTH 800 0
DWIDTH 8 0
BBX 6 10 1 0
BITMAP
10
28
00
84
84
84
FC
84
84
84
ENDCHAR
STARTCHAR 0125
ENCODING 293
SWIDTH 700 0
DWIDTH 7 0
BBX 5 10 1 0
BITMAP
20
50
80
80
80
F0
88
88
88
88
ENDCHAR
STARTCHAR 0126
ENCODING 294
SWIDTH 800 0
DWIDTH 8 0
BBX 8 7 0 0
BITMAP
42
FF
42
7E
42
42
42
ENDCHAR
STARTCHAR 0127
ENCODING 295
SWIDTH 700 0
DWIDTH 7 0
BBX 6 8 0 0
BITMAP
40
F0
40
78
44
44
44
44
ENDCHAR
STARTCHAR 0128
ENCODING 296
SWIDTH 500 0
DWIDTH 5 0
BBX 4 10 1 0
BITMAP
D0
B0
00
E0
40
40
40
40
40
E0
ENDCHAR
STARTCHAR 0129
ENCODING 297
SWIDTH 300 0
DWIDTH 3 0
BBX 4 8 0 0
BITMAP
D0
B0
00
40
40
40
40
40
ENDCHAR
STARTCHAR 012A
ENCODING 298
SWIDTH 500 0
DWIDTH 5 0
BBX 3 9 1 0
BITMAP
E0
00
E0
40
40
40
40
40
E0
ENDCHAR
STARTCHAR 012B
ENCODING 299
SWIDTH 300 0
DWIDTH 3 0
BBX 3 7 0 0
BITMAP
E0
00
40
40
40
40
40
ENDCHAR
STARTCHAR 012C
ENCODING 300
SWIDTH 500 0
DWIDTH 5 0
BBX 3 10 1 0
BITMAP
A0
E0
00
E0
40
40
40
40
40
E0
ENDCHAR
STARTCHAR 012D
ENCODING 301
SWIDTH 300 0
DWIDTH 3 0
BBX 3 8 0 0
BITMAP
A0
E0
00
40
40
40
40
40
ENDCHAR
STARTCHAR 012E
ENCODING 302
SWIDTH 500 0
DWIDTH 5 0
BBX 3 9 1 -2
BITMAP
E0
40
40
40
40
40
E0
40
20
ENDCHAR
STARTCHAR 012F
ENCODING 303
SWIDTH 300 0
DWIDTH 3 0
BBX 2 9 1 -2
BITMAP
80
00
80
80
80
80
80
80
40
ENDCHAR
STARTCHAR 0130
ENCODING 304
SWIDTH 500 0
DWIDTH 5 0
BBX 3 9 1 0
BITMAP
40
00
E0
40
40
40
40
40
E0
ENDCHAR
STARTCHAR 0131
ENCODING 305
SWIDTH 300 0
DWIDTH 3 0
BBX 1 5 1 0
BITMAP
80
80
80
80
80
ENDCHAR
STARTCHAR 0132
ENCODING 306
SWIDTH 900 0
DWIDTH 9 0
BBX 7 7 1 0
BITMAP
E6
42
42
42
42
42
FC
ENDCHAR
STARTCHAR 0133
ENCODING 307
SWIDTH 600 0
DWIDTH 6 0
BBX 4 9 1 -2
BITMAP
90
00
B0
90
90
90
90
10
60
ENDCHAR
STARTCHAR 0134
ENCODING 308
SWIDTH 500 0
DWIDTH 5 0
BBX 4 10 0 0
BITMAP
20
50
00
30
10
10
10
10
10
E0
ENDCHAR
STARTCHAR 0135
ENCODING 309
SWIDTH 300 0
DWIDTH 3 0
BBX 4 10 -1 -2
BITMAP
20
50
00
60
20
20
20
20
20
C0
ENDCHAR
STARTCHAR 0136
ENCODING 310
SWIDTH 700 0
DWIDTH 7 0
BBX 6 9 1 -2
BITMAP
88
90
A0
E0
90
88
84
10
60
ENDCHAR
STARTCHAR 0137
ENCODING 311
SWIDTH 700 0
DWIDTH 7 0
BBX 5 10 1 -2
BITMAP
80
80
80
90
A0
E0
90
88
20
C0
ENDCHAR
STARTCHAR 0138
ENCODING 312
SWIDTH 700 0
DWIDTH 7 0
BBX 5 5 1 0
BITMAP
90
A0
E0
90
88
ENDCHAR
STARTCHAR 0139
ENCODING 313
SWIDTH 600 0
DWIDTH 6 0
BBX 5 10 1 0
BITMAP
40
80
00
80
80
80
80
80
80
F8
ENDCHAR
STARTCHAR 013A
ENCODING 314
SWIDTH 300 0
DWIDTH 3 0
BBX 2 10 1 0
BITMAP
40
80
00
80
80
80
80
80
80
80
ENDCHAR
STARTCHAR 013B
ENCODING 315
SWIDTH 600 0
DWIDTH 6 0
BBX 5 9 1 -2
BITMAP
80
80
80
80
80
80
F8
10
60
ENDCHAR
STARTCHAR 013C
ENCODING 316
SWIDTH 300 0
DWIDTH 3 0
BBX 2 10 1 -2
BITMAP
80
80
80
80
80
80
80
80
40
80
ENDCHAR
STARTCHAR 013D
ENCODING 317
SWIDTH 600 0
DWIDTH 6 0
BBX 5 8 1 0
BITMAP
10
A0
80
80
80
80
80
F8
ENDCHAR
STARTCHAR 013E
ENCODING 318
SWIDTH 300 0
DWIDTH 3 0
BBX 4 8 1 0
BITMAP
90
A0
80
80
80
80
80
80
ENDCHAR
STARTCHAR 013F
ENCODING 319
SWIDTH 600 0
DWIDTH 6 0
BBX 5 7 1 0
BITMAP
80
80
80
90
90
80
F8
ENDCHAR
STARTCHAR 0140
ENCODING 320
SWIDTH 500 0
DWIDTH 5 0
BBX 3 8 1 0
BITMAP
80
80
80
80
A0
A0
80
80
ENDCHAR
STARTCHAR 0141
ENCODING 321
SWIDTH 600 0
DWIDTH 6 0
BBX 6 7 0 0
BITMAP
40
40
50
60
C0
40
7C
ENDCHAR
STARTCHAR 0142
ENCODING 322
SWIDTH 300 0
DWIDTH 3 0
BBX 3 8 0 0
BITMAP
40
40
40
60
40
C0
40
40
ENDCHAR
STARTCHAR 0143
ENCODING 323
SWIDTH 700 0
DWIDTH 7 0
BBX 5 10 1 0
BITMAP
10
20
00
88
C8
A8
A8
98
88
88
ENDCHAR
STARTCHAR 0144
ENCODING 324
SWIDTH 700 0
DWIDTH 7 0
BBX 5 8 1 0
BITMAP
10
20
00
F0
88
88
88
88
ENDCHAR
STARTCHAR 0145
ENCODING 325
SWIDTH 700 0
DWIDTH 7 0
BBX 5 9 1 -2
BITMAP
88
C8
A8
A8
98
88
88
20
C0
ENDCHAR
STARTCHAR 0146
ENCODING 326
SWIDTH 700 0
DWIDTH 7 0
BBX 5 7 1 -2
BITMAP
F0
88
88
88
88
20
C0
ENDCHAR
STARTCHAR 0147
ENCODING 327
SWIDTH 700 0
DWIDTH 7 0
BBX 5 10 1 0
BITMAP
50
20
00
88
C8
A8
A8
98
88
88
ENDCHAR
STARTCHAR 0148
ENCODING 328
SWIDTH 700 0
DWIDTH 7 0
BBX 5 8 1 0
BITMAP
50
20
00
F0
88
88
88
88
ENDCHAR
STARTCHAR 0149
ENCODING 329
SWIDTH 700 0
DWIDTH 7 0
BBX 7 8 -1 0
BITMAP
40
40
80
3C
22
22
22
22
ENDCHAR
STARTCHAR 014A
ENCODING 330
SWIDTH 700 0
DWIDTH 7 0
BBX 5 9 1 -2
BITMAP
88
C8
A8
A8
98
88
88
08
30
ENDCHAR
STARTCHAR 014B
ENCODING 331
SWIDTH 700 0
DWIDTH 7 0
BBX 5 7 1 -2
BITMAP
F0
88
88
88
88
08
30
ENDCHAR
STARTCHAR 014C
ENCODING 332
SWIDTH 900 0
DWIDTH 9 0
BBX 7 9 1 0
BITMAP
3C
00
38
44
82
82
82
44
38
ENDCHAR
STARTCHAR 014D
ENCODING 333
SWIDTH 700 0
DWIDTH 7 0
BBX 5 7 1 0
BITMAP
78
00
70
88
88
88
70
ENDCHAR
STARTCHAR 014E
ENCODING 334
SWIDTH 900 0
DWIDTH 9 0
BBX 7 10 1 0
BITMAP
24
18
00
38
44
82
82
82
44
38
ENDCHAR
STARTCHAR 014F
ENCODING 335
SWIDTH 700 0
DWIDTH 7 0
BBX 5 8 1 0
BITMAP
48
30
00
70
88
88
88
70
ENDCHAR
STARTCHAR 0150
ENCODING 336
SWIDTH 900 0
DWIDTH 9 0
BBX 7 10 1 0
BITMAP
14
28
00
38
44
82
82
82
44
38
ENDCHAR
STARTCHAR 0151
ENCODING 337
SWIDTH 700 0
DWIDTH 7 0
BBX 5 8 1 0
BITMAP
28
50
00
70
88
88
88
70
ENDCHAR
STARTCHAR 0152
ENCODING 338
SWIDTH 1100 0
DWIDTH 11 0
BBX 9 7 1 0
BITMAP
3F80
4400
8400
8780
8400
4400
3F80
ENDCHAR
STARTCHAR 0153
ENCODING 339
SWIDTH 1000 0
DWIDTH 10 0
BBX 8 5 1 0
BITMAP
76
89
8F
88
77
ENDCHAR
STARTCHAR 0154
ENCODING 340
SWIDTH 800 0
DWIDTH 8 0
BBX 6 10 1 0
BITMAP
10
20
00
F0
88
88
F0
90
88
84
ENDCHAR
STARTCHAR 0155
ENCODING 341
SWIDTH 400 0
DWIDTH 4 0
BBX 3 8 1 0
BITMAP
20
40
00
A0
C0
80
80
80
ENDCHAR
STARTCHAR 0156
ENCODING 342
SWIDTH 800 0
DWIDTH 8 0
BBX 6 9 1 -2
BITMAP
F0
88
88
F0
90
88
84
10
60
ENDCHAR
STARTCHAR 0157
ENCODING 343
SWIDTH 400 0
DWIDTH 4 0
BBX 3 7 1 -2
BITMAP
A0
C0
80
80
80
40
80
ENDCHAR
STARTCHAR 0158
ENCODING 344
SWIDTH 800 0
DWIDTH 8 0
BBX 6 10 1 0
BITMAP
50
20
00
F0
88
88
F0
90
88
84
ENDCHAR
STARTCHAR 0159
ENCODING 345
SWIDTH 400 0
DWIDTH 4 0
BBX 3 8 1 0
BITMAP
A0
40
00
A0
C0
80
80
80
ENDCHAR
STARTCHAR 015A
ENCODING 346
SWIDTH 700 0
DWIDTH 7 0
BBX 5 10 1 0
BITMAP
10
20
00
70
88
80
70
08
88
70
ENDCHAR
STARTCHAR 015B
ENCODING 347
SWIDTH 600 0
DWIDTH 6 0
BBX 4 8 1 0
BITMAP
10
20
00
70
80
60
10
E0
ENDCHAR
STARTCHAR 015C
ENCODING 348
SWIDTH 700 0
DWIDTH 7 0
BBX 5 10 1 0
BITMAP
20
50
00
70
88
80
70
08
88
70
ENDCHAR
STARTCHAR 015D
ENCODING 349
SWIDTH 600 0
DWIDTH 6 0
BBX 4 8 1 0
BITMAP
20
50
00
70
80
60
10
E0
ENDCHAR
STARTCHAR 015E
ENCODING 350
SWIDTH 700 0
DWIDTH 7 0
BBX 5 9 1 -2
BITMAP
70
88
80
70
08
88
70
20
C0
ENDCHAR
STARTCHAR 015F
ENCODING 351
SWIDTH 600 0
DWIDTH 6 0
BBX 4 7 1 -2
BITMAP
70
80
60
10
E0
20
C0
ENDCHAR
STARTCHAR 0160
ENCODING 352
SWIDTH 700 0
DWIDTH 7 0
BBX 5 10 1 0
BITMAP
50
20
00
70
88
80
70
08
88
70
ENDCHAR
STARTCHAR 0161
ENCODING 353
SWIDTH 600 0
DWIDTH 6 0
BBX 4 8 1 0
BITMAP
50
20
00
70
80
60
10
E0
ENDCHAR
STARTCHAR 0162
ENCODING 354
SWIDTH 700 0
DWIDTH 7 0
BBX 7 9 0 -2
BITMAP
FE
10
10
10
10
10
10
10
60
ENDCHAR
STARTCHAR 0163
ENCODING 355
SWIDTH 400 0
DWIDTH 4 0
BBX 4 9 0 -2
BITMAP
40
40
F0
40
40
40
30
10
60
ENDCHAR
STARTCHAR 0164
ENCODING 356
SWIDTH 700 0
DWIDTH 7 0
BBX 7 10 0 0
BITMAP
28
10
00
FE
10
10
10
10
10
10
ENDCHAR
STARTCHAR 0165
ENCODING 357
SWIDTH 400 0
DWIDTH 4 0
BBX 5 8 0 0
BITMAP
08
50
40
F0
40
40
40
30
ENDCHAR
STARTCHAR 0166
ENCODING 358
SWIDTH 700 0
DWIDTH 7 0
BBX 7 7 0 0
BITMAP
FE
10
10
7C
10
10
10
ENDCHAR
STARTCHAR 0167
ENCODING 359
SWIDTH 400 0
DWIDTH 4 0
BBX 4 7 0 0
BITMAP
40
40
F0
40
E0
40
30
ENDCHAR
STARTCHAR 0168
ENCODING 360
SWIDTH 800 0
DWIDTH 8 0
BBX 6 10 1 0
BITMAP
68
58
00
84
84
84
84
84
84
78
ENDCHAR
STARTCHAR 0169
ENCODING 361
SWIDTH 700 0
DWIDTH 7 0
BBX 5 8 1 0
BITMAP
68
58
00
88
88
88
88
78
ENDCHAR
STARTCHAR 016A
ENCODING 362
SWIDTH 800 0
DWIDTH 8 0
BBX 6 9 1 0
BITMAP
78
00
84
84
84
84
84
84
78
ENDCHAR
STARTCHAR 016B
ENCODING 363
SWIDTH 700 0
DWIDTH 7 0
BBX 5 7 1 0
BITMAP
78
00
88
88
88
88
78
ENDCHAR
STARTCHAR 016C
ENCODING 364
SWIDTH 800 0
DWIDTH 8 0
BBX 6 10 1 0
BITMAP
48
30
00
84
84
84
84
84
84
78
ENDCHAR
STARTCHAR 016D
ENCODING 365
SWIDTH 700 0
DWIDTH 7 0
BBX 5 8 1 0
BITMAP
48
30
00
88
88
88
88
78
ENDCHAR
STARTCHAR 016E
ENCODING 366
SWIDTH 800 0
DWIDTH 8 0
BBX 6 10 1 0
BITMAP
70
50
70
84
84
84
84
84
84
78
ENDCHAR
STARTCHAR 016F
ENCODING 367
SWIDTH 700 0
DWIDTH 7 0
BBX 5 9 1 0
BITMAP
70
50
70
00
88
88
88
88
78
ENDCHAR
STARTCHAR 0170
ENCODING 368
SWIDTH 800 0
DWIDTH 8 0
BBX 6 10 1 0
BITMAP
14
28
00
84
84
84
84
84
84
78
ENDCHAR
STARTCHAR 0171
ENCODING 369
SWIDTH 700 0
DWIDTH 7 0
BBX 5 8 1 0
BITMAP
28
50
00
88
88
88
88
78
ENDCHAR
STARTCHAR 0172
ENCODING 370
SWIDTH 800 0
DWIDTH 8 0
BBX 6 9 1 -2
BITMAP
84
84
84
84
84
84
78
10
08
ENDCHAR
STARTCHAR 0173
ENCODING 371
SWIDTH 700 0
DWIDTH 7 0
BBX 5 7 1 -2
BITMAP
88
88
88
88
78
10
08
ENDCHAR
STARTCHAR 0174
ENCODING 372
SWIDTH 1100 0
DWIDTH 11 0
BBX 9 10 1 0
BITMAP
0800
1400
0000
8880
8880
5500
5500
5500
2200
2200
ENDCHAR
STARTCHAR 0175
ENCODING 373
SWIDTH 700 0
DWIDTH 7 0
BBX 5 8 1 0
BITMAP
20
50
00
88
A8
A8
50
50
ENDCHAR
STARTCHAR 0176
ENCODING 374
SWIDTH 700 0
DWIDTH 7 0
BBX 7 10 0 0
BITMAP
10
28
00
82
44
28
10
10
10
10
ENDCHAR
STARTCHAR 0177
ENCODING 375
SWIDTH 600 0
DWIDTH 6 0
BBX 4 10 1 -2
BITMAP
20
50
00
90
90
90
60
20
40
40
ENDCHAR
STARTCHAR 0178
ENCODING 376
SWIDTH 700 0
DWIDTH 7 0
BBX 7 9 0 0
BITMAP
28
00
82
44
28
10
10
10
10
ENDCHAR
STARTCHAR 0179
ENCODING 377
SWIDTH 700 0
DWIDTH 7 0
BBX 5 10 1 0
BITMAP
10
20
00
F8
08
10
20
40
80
F8
ENDCHAR
STARTCHAR 017A
ENCODING 378
SWIDTH 600 0
DWIDTH 6 0
BBX 4 8 1 0
BITMAP
20
40
00
F0
20
40
80
F0
ENDCHAR
STARTCHAR 017B
ENCODING 379
SWIDTH 700 0
DWIDTH 7 0
BBX 5 9 1 0
BITMAP
20
00
F8
08
10
20
40
80
F8
ENDCHAR
STARTCHAR 017C
ENCODING 380
SWIDTH 600 0
DWIDTH 6 0
BBX 4 7 1 0
BITMAP
20
00
F0
20
40
80
F0
ENDCHAR
STARTCHAR 017D
ENCODING 381
SWIDTH 700 0
DWIDTH 7 0
BBX 5 10 1 0
BITMAP
50
20
00
F8
08
10
20
40
80
F8
ENDCHAR
STARTCHAR 017E
ENCODING 382
SWIDTH 600 0
DWIDTH 6 0
BBX 4 8 1 0
BITMAP
50
20
00
F0
20
40
80
F0
ENDCHAR
STARTCHAR 017F
ENCODING 383
SWIDTH 300 0
DWIDTH 3 0
BBX 3 8 1 0
BITMAP
60
80
80
80
80
80
80
80
ENDCHAR
STARTCHAR 0192
ENCODING 402
SWIDTH 700 0
DWIDTH 7 0
BBX 6 8 0 -1
BITMAP
0C
10
10
38
20
20
20
C0
ENDCHAR
STARTCHAR 01A0
ENCODING 416
SWIDTH 900 0
DWIDTH 9 0
BBX 8 7 1 0
BITMAP
39
45
82
82
82
44
38
ENDCHAR
STARTCHAR 01A1
ENCODING 417
SWIDTH 700 0
DWIDTH 7 0
BBX 6 6 1 0
BITMAP
04
78
88
88
88
70
ENDCHAR
STARTCHAR 01AF
ENCODING 431
SWIDTH 800 0
DWIDTH 8 0
BBX 8 8 1 0
BITMAP
01
86
84
84
84
84
84
78
ENDCHAR
STARTCHAR 01B0
ENCODING 432
SWIDTH 700 0
DWIDTH 7 0
BBX 7 6 1 0
BITMAP
02
8C
88
88
88
78
ENDCHAR
STARTCHAR 01FA
ENCODING 506
SWIDTH 700 0
DWIDTH 7 0
BBX 7 10 0 0
BITMAP
08
10
28
10
28
28
44
7C
44
82
ENDCHAR
STARTCHAR 01FB
ENCODING 507
SWIDTH 700 0
DWIDTH 7 0
BBX 5 8 1 0
BITMAP
10
20
50
70
08
78
88
78
ENDCHAR
STARTCHAR 01FC
ENCODING 508
SWIDTH 1000 0
DWIDTH 10 0
BBX 8 10 1 0
BITMAP
04
08
00
3F
48
48
8F
F8
88
8F
ENDCHAR
STARTCHAR 01FD
ENCODING 509
SWIDTH 1000 0
DWIDTH 10 0
BBX 8 8 1 0
BITMAP
04
08
00
EE
11
7F
90
6F
ENDCHAR
STARTCHAR 01FE
ENCODING 510
SWIDTH 900 0
DWIDTH 9 0
BBX 7 10 1 0
BITMAP
08
10
00
3A
44
8A
92
A2
44
B8
ENDCHAR
STARTCHAR 01FF
ENCODING 511
SWIDTH 700 0
DWIDTH 7 0
BBX 5 9 1 -1
BITMAP
10
20
08
70
98
A8
C8
70
80
ENDCHAR
STARTCHAR 02C6
ENCODING 710
SWIDTH 600 0
DWIDTH 6 0
BBX 3 2 2 6
BITMAP
40
A0
ENDCHAR
STARTCHAR 02C7
ENCODING 711
SWIDTH 600 0
DWIDTH 6 0
BBX 3 2 2 6
BITMAP
A0
40
ENDCHAR
STARTCHAR 02C9
ENCODING 713
SWIDTH 600 0
DWIDTH 6 0
BBX 4 1 1 6
BITMAP
F0
ENDCHAR
STARTCHAR 02D8
ENCODING 728
SWIDTH 600 0
DWIDTH 6 0
BBX 4 2 1 6
BITMAP
90
60
ENDCHAR
STARTCHAR 02D9
ENCODING 729
SWIDTH 600 0
DWIDTH 6 0
BBX 1 1 3 6
BITMAP
80
ENDCHAR
STARTCHAR 02DA
ENCODING 730
SWIDTH 600 0
DWIDTH 6 0
BBX 3 3 1 6
BITMAP
E0
A0
E0
ENDCHAR
STARTCHAR 02DB
ENCODING 731
SWIDTH 600 0
DWIDTH 6 0
BBX 2 2 2 -2
BITMAP
80
40
ENDCHAR
STARTCHAR 02DC
ENCODING 732
SWIDTH 600 0
DWIDTH 6 0
BBX 4 2 1 6
BITMAP
D0
B0
ENDCHAR
STARTCHAR 02DD
ENCODING 733
SWIDTH 600 0
DWIDTH 6 0
BBX 4 2 2 6
BITMAP
50
A0
ENDCHAR
STARTCHAR 0300
ENCODING 768
SWIDTH 0 0
DWIDTH 0 0
BBX 2 2 2 6
BITMAP
80
40
ENDCHAR
STARTCHAR 0301
ENCODING 769
SWIDTH 0 0
DWIDTH 0 0
BBX 2 2 3 6
BITMAP
40
80
ENDCHAR
STARTCHAR 0303
ENCODING 771
SWIDTH 0 0
DWIDTH 0 0
BBX 4 2 1 6
BITMAP
D0
B0
ENDCHAR
STARTCHAR 0309
ENCODING 777
SWIDTH 0 0
DWIDTH 0 0
BBX 2 2 3 6
BITMAP
C0
40
ENDCHAR
STARTCHAR 0323
ENCODING 803
SWIDTH 0 0
DWIDTH 0 0
BBX 1 1 3 -2
BITMAP
80
ENDCHAR
STARTCHAR 037E
ENCODING 894
SWIDTH 500 0
DWIDTH 5 0
BBX 2 6 1 -1
BITMAP
40
40
00
40
40
80
ENDCHAR
STARTCHAR 0384
ENCODING 900
SWIDTH 600 0
DWIDTH 6 0
BBX 1 2 2 6
BITMAP
80
80
ENDCHAR
STARTCHAR 0385
ENCODING 901
SWIDTH 600 0
DWIDTH 6 0
BBX 5 2 0 6
BITMAP
20
A8
ENDCHAR
STARTCHAR 0386
ENCODING 902
SWIDTH 700 0
DWIDTH 7 0
BBX 7 7 0 0
BITMAP
90
A8
28
44
7C
44
82
ENDCHAR
STARTCHAR 0387
ENCODING 903
SWIDTH 500 0
DWIDTH 5 0
BBX 1 2 2 3
BITMAP
80
80
ENDCHAR
STARTCHAR 0388
ENCODING 904
SWIDTH 700 0
DWIDTH 7 0
BBX 6 7 0 0
BITMAP
BC
A0
20
3C
20
20
3C
ENDCHAR
STARTCHAR 0389
ENCODING 905
SWIDTH 900 0
DWIDTH 9 0
BBX 8 7 0 0
BITMAP
A1
A1
21
3F
21
21
21
ENDCHAR
STARTCHAR 038A
ENCODING 906
SWIDTH 600 0
DWIDTH 6 0
BBX 5 7 0 0
BITMAP
B8
90
10
10
10
10
38
ENDCHAR
STARTCHAR 038C
ENCODING 908
SWIDTH 900 0
DWIDTH 9 0
BBX 8 7 0 0
BITMAP
9C
A2
41
41
41
22
1C
ENDCHAR
STARTCHAR 038E
ENCODING 910
SWIDTH 900 0
DWIDTH 9 0
BBX 9 7 0 0
BITMAP
A080
9100
0A00
0400
0400
0400
0400
ENDCHAR
STARTCHAR 038F
ENCODING 911
SWIDTH 900 0
DWIDTH 9 0
BBX 8 7 0 0
BITMAP
9C
A2
41
41
22
14
77
ENDCHAR
STARTCHAR 0390
ENCODING 912
SWIDTH 300 0
DWIDTH 3 0
BBX 5 8 -1 0
BITMAP
20
A8
00
20
20
20
20
20
ENDCHAR
STARTCHAR 0391
ENCODING 913
SWIDTH 700 0
DWIDTH 7 0
BBX 7 7 0 0
BITMAP
10
28
28
44
7C
44
82
ENDCHAR
STARTCHAR 0392
ENCODING 914
SWIDTH 700 0
DWIDTH 7 0
BBX 5 7 1 0
BITMAP
E0
90
90
F0
88
88
F0
ENDCHAR
STARTCHAR 0393
ENCODING 915
SWIDTH 600 0
DWIDTH 6 0
BBX 5 7 1 0
BITMAP
F8
80
80
80
80
80
80
ENDCHAR
STARTCHAR 0394
ENCODING 916
SWIDTH 700 0
DWIDTH 7 0
BBX 5 7 1 0
BITMAP
20
50
50
50
88
88
F8
ENDCHAR
STARTCHAR 0395
ENCODING 917
SWIDTH 600 0
DWIDTH 6 0
BBX 4 7 1 0
BITMAP
F0
80
80
F0
80
80
F0
ENDCHAR
STARTCHAR 0396
ENCODING 918
SWIDTH 700 0
DWIDTH 7 0
BBX 5 7 1 0
BITMAP
F8
08
10
20
40
80
F8
ENDCHAR
STARTCHAR 0397
ENCODING 919
SWIDTH 800 0
DWIDTH 8 0
BBX 6 7 1 0
BITMAP
84
84
84
FC
84
84
84
ENDCHAR
STARTCHAR 0398
ENCODING 920
SWIDTH 900 0
DWIDTH 9 0
BBX 7 7 1 0
BITMAP
38
44
82
BA
82
44
38
ENDCHAR
STARTCHAR 0399
ENCODING 921
SWIDTH 500 0
DWIDTH 5 0
BBX 3 7 1 0
BITMAP
E0
40
40
40
40
40
E0
ENDCHAR
STARTCHAR 039A
ENCODING 922
SWIDTH 700 0
DWIDTH 7 0
BBX 6 7 1 0
BITMAP
88
90
A0
E0
90
88
84
ENDCHAR
STARTCHAR 039B
ENCODING 923
SWIDTH 700 0
DWIDTH 7 0
BBX 7 7 0 0
BITMAP
10
28
28
44
44
44
82
ENDCHAR
STARTCHAR 039C
ENCODING 924
SWIDTH 900 0
DWIDTH 9 0
BBX 7 7 1 0
BITMAP
C6
C6
AA
AA
92
92
82
ENDCHAR
STARTCHAR 039D
ENCODING 925
SWIDTH 700 0
DWIDTH 7 0
BBX 5 7 1 0
BITMAP
88
C8
A8
A8
98
88
88
ENDCHAR
STARTCHAR 039E
ENCODING 926
SWIDTH 700 0
DWIDTH 7 0
BBX 5 7 1 0
BITMAP
F8
00
00
70
00
00
F8
ENDCHAR
STARTCHAR 039F
ENCODING 927
SWIDTH 900 0
DWIDTH 9 0
BBX 7 7 1 0
BITMAP
38
44
82
82
82
44
38
ENDCHAR
STARTCHAR 03A0
ENCODING 928
SWIDTH 800 0
DWIDTH 8 0
BBX 6 7 1 0
BITMAP
FC
84
84
84
84
84
84
ENDCHAR
STARTCHAR 03A1
ENCODING 929
SWIDTH 700 0
DWIDTH 7 0
BBX 5 7 1 0
BITMAP
F0
88
88
88
F0
80
80
ENDCHAR
STARTCHAR 03A3
ENCODING 931
SWIDTH 700 0
DWIDTH 7 0
BBX 5 7 1 0
BITMAP
F8
80
40
20
40
80
F8
ENDCHAR
STARTCHAR 03A4
ENCODING 932
SWIDTH 700 0
DWIDTH 7 0
BBX 7 7 0 0
BITMAP
FE
10
10
10
10
10
10
ENDCHAR
STARTCHAR 03A5
ENCODING 933
SWIDTH 700 0
DWIDTH 7 0
BBX 7 7 0 0
BITMAP
82
44
28
10
10
10
10
ENDCHAR
STARTCHAR 03A6
ENCODING 934
SWIDTH 900 0
DWIDTH 9 0
BBX 7 7 1 0
BITMAP
10
7C
92
92
92
7C
10
ENDCHAR
STARTCHAR 03A7
ENCODING 935
SWIDTH 700 0
DWIDTH 7 0
BBX 5 7 1 0
BITMAP
88
88
50
20
50
88
88
ENDCHAR
STARTCHAR 03A8
ENCODING 936
SWIDTH 900 0
DWIDTH 9 0
BBX 7 7 1 0
BITMAP
92
92
92
92
7C
10
10
ENDCHAR
STARTCHAR 03A9
ENCODING 937
SWIDTH 900 0
DWIDTH 9 0
BBX 7 7 1 0
BITMAP
38
44
82
82
44
28
EE
ENDCHAR
STARTCHAR 03AA
ENCODING 938
SWIDTH 500 0
DWIDTH 5 0
BBX 3 9 1 0
BITMAP
A0
00
E0
40
40
40
40
40
E0
ENDCHAR
STARTCHAR 03AB
ENCODING 939
SWIDTH 700 0
DWIDTH 7 0
BBX 7 9 0 0
BITMAP
28
00
82
44
28
10
10
10
10
ENDCHAR
STARTCHAR 03AC
ENCODING 940
SWIDTH 700 0
DWIDTH 7 0
BBX 5 8 1 0
BITMAP
20
20
00
78
88
88
88
78
ENDCHAR
STARTCHAR 03AD
ENCODING 941
SWIDTH 500 0
DWIDTH 5 0
BBX 3 8 1 0
BITMAP
40
40
00
E0
80
60
80
E0
ENDCHAR
STARTCHAR 03AE
ENCODING 942
SWIDTH 700 0
DWIDTH 7 0
BBX 5 10 1 -2
BITMAP
20
20
00
F0
88
88
88
88
08
08
ENDCHAR
STARTCHAR 03AF
ENCODING 943
SWIDTH 300 0
DWIDTH 3 0
BBX 1 8 1 0
BITMAP
80
80
00
80
80
80
80
80
ENDCHAR
STARTCHAR 03B0
ENCODING 944
SWIDTH 700 0
DWIDTH 7 0
BBX 5 8 1 0
BITMAP
20
A8
00
88
88
88
88
70
ENDCHAR
STARTCHAR 03B1
ENCODING 945
SWIDTH 700 0
DWIDTH 7 0
BBX 5 5 1 0
BITMAP
78
88
88
88
78
ENDCHAR
STARTCHAR 03B2
ENCODING 946
SWIDTH 700 0
DWIDTH 7 0
BBX 5 10 1 -2
BITMAP
70
88
88
B0
88
88
88
F0
80
80
ENDCHAR
STARTCHAR 03B3
ENCODING 947
SWIDTH 700 0
DWIDTH 7 0
BBX 5 7 1 -2
BITMAP
88
88
50
50
20
20
20
ENDCHAR
STARTCHAR 03B4
ENCODING 948
SWIDTH 700 0
DWIDTH 7 0
BBX 5 8 1 0
BITMAP
78
40
20
70
88
88
88
70
ENDCHAR
STARTCHAR 03B5
ENCODING 949
SWIDTH 500 0
DWIDTH 5 0
BBX 3 5 1 0
BITMAP
E0
80
60
80
E0
ENDCHAR
STARTCHAR 03B6
ENCODING 950
SWIDTH 500 0
DWIDTH 5 0
BBX 4 10 1 -2
BITMAP
F0
20
40
40
80
80
80
70
10
20
ENDCHAR
STARTCHAR 03B7
ENCODING 951
SWIDTH 700 0
DWIDTH 7 0
BBX 5 7 1 -2
BITMAP
F0
88
88
88
88
08
08
ENDCHAR
STARTCHAR 03B8
ENCODING 952
SWIDTH 700 0
DWIDTH 7 0
BBX 5 8 1 0
BITMAP
70
88
88
F8
88
88
88
70
ENDCHAR
STARTCHAR 03B9
ENCODING 953
SWIDTH 300 0
DWIDTH 3 0
BBX 1 5 1 0
BITMAP
80
80
80
80
80
ENDCHAR
STARTCHAR 03BA
ENCODING 954
SWIDTH 700 0
DWIDTH 7 0
BBX 5 5 1 0
BITMAP
98
A0
E0
90
88
ENDCHAR
STARTCHAR 03BB
ENCODING 955
SWIDTH 600 0
DWIDTH 6 0
BBX 4 8 1 0
BITMAP
40
40
20
60
60
90
90
90
ENDCHAR
STARTCHAR 03BC
ENCODING 956
SWIDTH 700 0
DWIDTH 7 0
BBX 5 7 1 -2
BITMAP
88
88
88
88
F8
80
80
ENDCHAR
STARTCHAR 03BD
ENCODING 957
SWIDTH 600 0
DWIDTH 6 0
BBX 4 5 1 0
BITMAP
90
90
90
60
60
ENDCHAR
STARTCHAR 03BE
ENCODING 958
SWIDTH 500 0
DWIDTH 5 0
BBX 3 10 1 -2
BITMAP
E0
80
80
60
80
80
80
60
20
40
ENDCHAR
STARTCHAR 03BF
ENCODING 959
SWIDTH 700 0
DWIDTH 7 0
BBX 5 5 1 0
BITMAP
70
88
88
88
70
ENDCHAR
STARTCHAR 03C0
ENCODING 960
SWIDTH 700 0
DWIDTH 7 0
BBX 5 5 1 0
BITMAP
F8
88
88
88
88
ENDCHAR
STARTCHAR 03C1
ENCODING 961
SWIDTH 700 0
DWIDTH 7 0
BBX 5 7 1 -2
BITMAP
70
88
88
88
F0
80
80
ENDCHAR
STARTCHAR 03C2
ENCODING 962
SWIDTH 500 0
DWIDTH 5 0
BBX 4 7 1 -2
BITMAP
70
80
80
80
70
10
20
ENDCHAR
STARTCHAR 03C3
ENCODING 963
SWIDTH 700 0
DWIDTH 7 0
BBX 6 5 1 0
BITMAP
7C
88
88
88
70
ENDCHAR
STARTCHAR 03C4
ENCODING 964
SWIDTH 500 0
DWIDTH 5 0
BBX 5 5 0 0
BITMAP
F8
20
20
20
20
ENDCHAR
STARTCHAR 03C5
ENCODING 965
SWIDTH 700 0
DWIDTH 7 0
BBX 5 5 1 0
BITMAP
88
88
88
88
70
ENDCHAR
STARTCHAR 03C6
ENCODING 966
SWIDTH 900 0
DWIDTH 9 0
BBX 7 7 1 -2
BITMAP
5C
92
92
92
7C
10
10
ENDCHAR
STARTCHAR 03C7
ENCODING 967
SWIDTH 600 0
DWIDTH 6 0
BBX 4 7 1 -2
BITMAP
90
90
60
60
60
90
90
ENDCHAR
STARTCHAR 03C8
ENCODING 968
SWIDTH 900 0
DWIDTH 9 0
BBX 7 7 1 -2
BITMAP
92
92
92
92
7C
10
10
ENDCHAR
STARTCHAR 03C9
ENCODING 969
SWIDTH 900 0
DWIDTH 9 0
BBX 7 5 1 0
BITMAP
44
92
92
92
6C
ENDCHAR
STARTCHAR 03CA
ENCODING 970
SWIDTH 300 0
DWIDTH 3 0
BBX 3 7 0 0
BITMAP
A0
00
40
40
40
40
40
ENDCHAR
STARTCHAR 03CB
ENCODING 971
SWIDTH 700 0
DWIDTH 7 0
BBX 5 7 1 0
BITMAP
50
00
88
88
88
88
70
ENDCHAR
STARTCHAR 03CC
ENCODING 972
SWIDTH 700 0
DWIDTH 7 0
BBX 5 8 1 0
BITMAP
20
20
00
70
88
88
88
70
ENDCHAR
STARTCHAR 03CD
ENCODING 973
SWIDTH 700 0
DWIDTH 7 0
BBX 5 8 1 0
BITMAP
20
20
00
88
88
88
88
70
ENDCHAR
STARTCHAR 03CE
ENCODING 974
SWIDTH 900 0
DWIDTH 9 0
BBX 7 8 1 0
BITMAP
10
10
00
44
92
92
92
6C
ENDCHAR
STARTCHAR 0401
ENCODING 1025
SWIDTH 600 0
DWIDTH 6 0
BBX 4 9 1 0
BITMAP
50
00
F0
80
80
F0
80
80
F0
ENDCHAR
STARTCHAR 0402
ENCODING 1026
SWIDTH 800 0
DWIDTH 8 0
BBX 7 7 0 0
BITMAP
FC
20
20
3C
22
22
2C
ENDCHAR
STARTCHAR 0403
ENCODING 1027
SWIDTH 600 0
DWIDTH 6 0
BBX 5 10 1 0
BITMAP
10
20
00
F8
80
80
80
80
80
80
ENDCHAR
STARTCHAR 0404
ENCODING 1028
SWIDTH 800 0
DWIDTH 8 0
BBX 6 7 1 0
BITMAP
38
44
80
F8
80
44
38
ENDCHAR
STARTCHAR 0405
ENCODING 1029
SWIDTH 700 0
DWIDTH 7 0
BBX 5 7 1 0
BITMAP
70
88
80
70
08
88
70
ENDCHAR
STARTCHAR 0406
ENCODING 1030
SWIDTH 500 0
DWIDTH 5 0
BBX 3 7 1 0
BITMAP
E0
40
40
40
40
40
E0
ENDCHAR
STARTCHAR 0407
ENCODING 1031
SWIDTH 500 0
DWIDTH 5 0
BBX 3 9 1 0
BITMAP
A0
00
E0
40
40
40
40
40
E0
ENDCHAR
STARTCHAR 0408
ENCODING 1032
SWIDTH 500 0
DWIDTH 5 0
BBX 4 7 0 0
BITMAP
30
10
10
10
10
10
E0
ENDCHAR
STARTCHAR 0409
ENCODING 1033
SWIDTH 1100 0
DWIDTH 11 0
BBX 10 7 0 0
BITMAP
3C00
2400
2400
2780
2440
2440
C780
ENDCHAR
STARTCHAR 040A
ENCODING 1034
SWIDTH 1100 0
DWIDTH 11 0
BBX 9 7 1 0
BITMAP
8800
8800
8800
FF00
8880
8880
8F00
ENDCHAR
STARTCHAR 040B
ENCODING 1035
SWIDTH 800 0
DWIDTH 8 0
BBX 7 7 0 0
BITMAP
F8
20
20
3C
22
22
22
ENDCHAR
STARTCHAR 040C
ENCODING 1036
SWIDTH 700 0
DWIDTH 7 0
BBX 6 10 1 0
BITMAP
10
20
00
8C
90
90
E0
90
88
84
ENDCHAR
STARTCHAR 040E
ENCODING 1038
SWIDTH 700 0
DWIDTH 7 0
BBX 5 10 1 0
BITMAP
50
70
00
88
88
50
50
20
20
C0
ENDCHAR
STARTCHAR 040F
ENCODING 1039
SWIDTH 800 0
DWIDTH 8 0
BBX 6 9 1 -2
BITMAP
84
84
84
84
84
84
FC
10
10
ENDCHAR
STARTCHAR 0410
ENCODING 1040
SWIDTH 700 0
DWIDTH 7 0
BBX 7 7 0 0
BITMAP
10
28
28
44
7C
44
82
ENDCHAR
STARTCHAR 0411
ENCODING 1041
SWIDTH 700 0
DWIDTH 7 0
BBX 5 7 1 0
BITMAP
F0
80
80
F0
88
88
F0
ENDCHAR
STARTCHAR 0412
ENCODING 1042
SWIDTH 700 0
DWIDTH 7 0
BBX 5 7 1 0
BITMAP
E0
90
90
F0
88
88
F0
ENDCHAR
STARTCHAR 0413
ENCODING 1043
SWIDTH 600 0
DWIDTH 6 0
BBX 5 7 1 0
BITMAP
F8
80
80
80
80
80
80
ENDCHAR
STARTCHAR 0414
ENCODING 1044
SWIDTH 700 0
DWIDTH 7 0
BBX 7 9 0 -2
BITMAP
3C
24
24
24
44
44
FE
82
82
ENDCHAR
STARTCHAR 0415
ENCODING 1045
SWIDTH 600 0
DWIDTH 6 0
BBX 4 7 1 0
BITMAP
F0
80
80
F0
80
80
F0
ENDCHAR
STARTCHAR 0416
ENCODING 1046
SWIDTH 900 0
DWIDTH 9 0
BBX 9 7 0 0
BITMAP
C980
2A00
2A00
1C00
2A00
4900
8880
ENDCHAR
STARTCHAR 0417
ENCODING 1047
SWIDTH 600 0
DWIDTH 6 0
BBX 5 7 0 0
BITMAP
F0
08
08
70
08
08
F0
ENDCHAR
STARTCHAR 0418
ENCODING 1048
SWIDTH 800 0
DWIDTH 8 0
BBX 6 7 1 0
BITMAP
84
8C
94
94
A4
C4
84
ENDCHAR
STARTCHAR 0419
ENCODING 1049
SWIDTH 800 0
DWIDTH 8 0
BBX 6 10 1 0
BITMAP
48
30
00
84
8C
94
94
A4
C4
84
ENDCHAR
STARTCHAR 041A
ENCODING 1050
SWIDTH 700 0
DWIDTH 7 0
BBX 6 7 1 0
BITMAP
8C
90
90
E0
90
88
84
ENDCHAR
STARTCHAR 041B
ENCODING 1051
SWIDTH 700 0
DWIDTH 7 0
BBX 6 7 0 0
BITMAP
3C
24
24
24
24
24
C4
ENDCHAR
STARTCHAR 041C
ENCODING 1052
SWIDTH 900 0
DWIDTH 9 0
BBX 7 7 1 0
BITMAP
C6
C6
AA
AA
92
92
82
ENDCHAR
STARTCHAR 041D
ENCODING 1053
SWIDTH 800 0
DWIDTH 8 0
BBX 6 7 1 0
BITMAP
84
84
84
FC
84
84
84
ENDCHAR
STARTCHAR 041E
ENCODING 1054
SWIDTH 900 0
DWIDTH 9 0
BBX 7 7 1 0
BITMAP
38
44
82
82
82
44
38
ENDCHAR
STARTCHAR 041F
ENCODING 1055
SWIDTH 800 0
DWIDTH 8 0
BBX 6 7 1 0
BITMAP
FC
84
84
84
84
84
84
ENDCHAR
STARTCHAR 0420
ENCODING 1056
SWIDTH 700 0
DWIDTH 7 0
BBX 5 7 1 0
BITMAP
F0
88
88
88
F0
80
80
ENDCHAR
STARTCHAR 0421
ENCODING 1057
SWIDTH 800 0
DWIDTH 8 0
BBX 6 7 1 0
BITMAP
38
44
80
80
80
44
38
ENDCHAR
STARTCHAR 0422
ENCODING 1058
SWIDTH 700 0
DWIDTH 7 0
BBX 7 7 0 0
BITMAP
FE
10
10
10
10
10
10
ENDCHAR
STARTCHAR 0423
ENCODING 1059
SWIDTH 700 0
DWIDTH 7 0
BBX 5 7 1 0
BITMAP
88
88
50
50
20
20
C0
ENDCHAR
STARTCHAR 0424
ENCODING 1060
SWIDTH 900 0
DWIDTH 9 0
BBX 7 7 1 0
BITMAP
10
7C
92
92
92
7C
10
ENDCHAR
STARTCHAR 0425
ENCODING 1061
SWIDTH 700 0
DWIDTH 7 0
BBX 5 7 1 0
BITMAP
88
88
50
20
50
88
88
ENDCHAR
STARTCHAR 0426
ENCODING 1062
SWIDTH 900 0
DWIDTH 9 0
BBX 7 9 1 -2
BITMAP
84
84
84
84
84
84
FE
02
02
ENDCHAR
STARTCHAR 0427
ENCODING 1063
SWIDTH 700 0
DWIDTH 7 0
BBX 5 7 1 0
BITMAP
88
88
88
78
08
08
08
ENDCHAR
STARTCHAR 0428
ENCODING 1064
SWIDTH 1100 0
DWIDTH 11 0
BBX 9 7 1 0
BITMAP
8880
8880
8880
8880
8880
8880
FF80
ENDCHAR
STARTCHAR 0429
ENCODING 1065
SWIDTH 1100 0
DWIDTH 11 0
BBX 10 9 1 -2
BITMAP
8880
8880
8880
8880
8880
8880
FFC0
0040
0040
ENDCHAR
STARTCHAR 042A
ENCODING 1066
SWIDTH 800 0
DWIDTH 8 0
BBX 7 7 0 0
BITMAP
E0
20
20
3C
22
22
3C
ENDCHAR
STARTCHAR 042B
ENCODING 1067
SWIDTH 900 0
DWIDTH 9 0
BBX 7 7 1 0
BITMAP
82
82
82
F2
8A
8A
F2
ENDCHAR
STARTCHAR 042C
ENCODING 1068
SWIDTH 700 0
DWIDTH 7 0
BBX 5 7 1 0
BITMAP
80
80
80
F0
88
88
F0
ENDCHAR
STARTCHAR 042D
ENCODING 1069
SWIDTH 800 0
DWIDTH 8 0
BBX 6 7 1 0
BITMAP
70
88
04
7C
04
88
70
ENDCHAR
STARTCHAR 042E
ENCODING 1070
SWIDTH 1000 0
DWIDTH 10 0
BBX 8 7 1 0
BITMAP
8C
92
A1
E1
A1
92
8C
ENDCHAR
STARTCHAR 042F
ENCODING 1071
SWIDTH 700 0
DWIDTH 7 0
BBX 6 7 0 0
BITMAP
3C
44
44
3C
24
44
84
ENDCHAR
STARTCHAR 0430
ENCODING 1072
SWIDTH 700 0
DWIDTH 7 0
BBX 5 5 1 0
BITMAP
70
08
78
88
78
ENDCHAR
STARTCHAR 0431
ENCODING 1073
SWIDTH 700 0
DWIDTH 7 0
BBX 5 8 1 0
BITMAP
38
40
80
F0
88
88
88
70
ENDCHAR
STARTCHAR 0432
ENCODING 1074
SWIDTH 600 0
DWIDTH 6 0
BBX 4 5 1 0
BITMAP
E0
90
E0
90
E0
ENDCHAR
STARTCHAR 0433
ENCODING 1075
SWIDTH 500 0
DWIDTH 5 0
BBX 4 5 1 0
BITMAP
F0
80
80
80
80
ENDCHAR
STARTCHAR 0434
ENCODING 1076
SWIDTH 600 0
DWIDTH 6 0
BBX 6 6 0 -1
BITMAP
38
28
28
48
FC
84
ENDCHAR
STARTCHAR 0435
ENCODING 1077
SWIDTH 700 0
DWIDTH 7 0
BBX 5 5 1 0
BITMAP
70
88
F8
80
78
ENDCHAR
STARTCHAR 0436
ENCODING 1078
SWIDTH 700 0
DWIDTH 7 0
BBX 7 5 0 0
BITMAP
92
54
38
54
92
ENDCHAR
STARTCHAR 0437
ENCODING 1079
SWIDTH 500 0
DWIDTH 5 0
BBX 4 5 0 0
BITMAP
F0
10
60
10
F0
ENDCHAR
STARTCHAR 0438
ENCODING 1080
SWIDTH 700 0
DWIDTH 7 0
BBX 5 5 1 0
BITMAP
88
98
A8
C8
88
ENDCHAR
STARTCHAR 0439
ENCODING 1081
SWIDTH 700 0
DWIDTH 7 0
BBX 5 8 1 0
BITMAP
88
70
00
88
98
A8
C8
88
ENDCHAR
STARTCHAR 043A
ENCODING 1082
SWIDTH 700 0
DWIDTH 7 0
BBX 5 5 1 0
BITMAP
98
A0
E0
90
88
ENDCHAR
STARTCHAR 043B
ENCODING 1083
SWIDTH 600 0
DWIDTH 6 0
BBX 5 5 0 0
BITMAP
78
48
48
48
88
ENDCHAR
STARTCHAR 043C
ENCODING 1084
SWIDTH 700 0
DWIDTH 7 0
BBX 5 5 1 0
BITMAP
88
D8
A8
A8
88
ENDCHAR
STARTCHAR 043D
ENCODING 1085
SWIDTH 700 0
DWIDTH 7 0
BBX 5 5 1 0
BITMAP
88
88
F8
88
88
ENDCHAR
STARTCHAR 043E
ENCODING 1086
SWIDTH 700 0
DWIDTH 7 0
BBX 5 5 1 0
BITMAP
70
88
88
88
70
ENDCHAR
STARTCHAR 043F
ENCODING 1087
SWIDTH 700 0
DWIDTH 7 0
BBX 5 5 1 0
BITMAP
F8
88
88
88
88
ENDCHAR
STARTCHAR 0440
ENCODING 1088
SWIDTH 700 0
DWIDTH 7 0
BBX 5 7 1 -2
BITMAP
F0
88
88
88
F0
80
80
ENDCHAR
STARTCHAR 0441
ENCODING 1089
SWIDTH 500 0
DWIDTH 5 0
BBX 4 5 1 0
BITMAP
70
80
80
80
70
ENDCHAR
STARTCHAR 0442
ENCODING 1090
SWIDTH 500 0
DWIDTH 5 0
BBX 5 5 0 0
BITMAP
F8
20
20
20
20
ENDCHAR
STARTCHAR 0443
ENCODING 1091
SWIDTH 600 0
DWIDTH 6 0
BBX 4 7 1 -2
BITMAP
90
90
90
60
20
40
40
ENDCHAR
STARTCHAR 0444
ENCODING 1092
SWIDTH 900 0
DWIDTH 9 0
BBX 7 10 1 -2
BITMAP
10
10
10
7C
92
92
92
7C
10
10
ENDCHAR
STARTCHAR 0445
ENCODING 1093
SWIDTH 700 0
DWIDTH 7 0
BBX 5 5 1 0
BITMAP
88
50
20
50
88
ENDCHAR
STARTCHAR 0446
ENCODING 1094
SWIDTH 700 0
DWIDTH 7 0
BBX 5 6 1 -1
BITMAP
90
90
90
90
F8
08
ENDCHAR
STARTCHAR 0447
ENCODING 1095
SWIDTH 600 0
DWIDTH 6 0
BBX 5 5 0 0
BITMAP
88
88
78
08
08
ENDCHAR
STARTCHAR 0448
ENCODING 1096
SWIDTH 900 0
DWIDTH 9 0
BBX 7 5 1 0
BITMAP
92
92
92
92
FE
ENDCHAR
STARTCHAR 0449
ENCODING 1097
SWIDTH 1000 0
DWIDTH 10 0
BBX 8 6 1 -1
BITMAP
92
92
92
92
FF
01
ENDCHAR
STARTCHAR 044A
ENCODING 1098
SWIDTH 700 0
DWIDTH 7 0
BBX 6 5 0 0
BITMAP
E0
20
38
24
38
ENDCHAR
STARTCHAR 044B
ENCODING 1099
SWIDTH 800 0
DWIDTH 8 0
BBX 6 5 1 0
BITMAP
84
84
E4
94
E4
ENDCHAR
STARTCHAR 044C
ENCODING 1100
SWIDTH 600 0
DWIDTH 6 0
BBX 4 5 1 0
BITMAP
80
80
E0
90
E0
ENDCHAR
STARTCHAR 044D
ENCODING 1101
SWIDTH 600 0
DWIDTH 6 0
BBX 4 5 1 0
BITMAP
E0
10
70
10
E0
ENDCHAR
STARTCHAR 044E
ENCODING 1102
SWIDTH 800 0
DWIDTH 8 0
BBX 6 5 1 0
BITMAP
98
A4
E4
A4
98
ENDCHAR
STARTCHAR 044F
ENCODING 1103
SWIDTH 600 0
DWIDTH 6 0
BBX 4 5 1 0
BITMAP
70
90
70
50
90
ENDCHAR
STARTCHAR 0451
ENCODING 1105
SWIDTH 700 0
DWIDTH 7 0
BBX 5 7 1 0
BITMAP
50
00
70
88
F8
80
78
ENDCHAR
STARTCHAR 0452
ENCODING 1106
SWIDTH 700 0
DWIDTH 7 0
BBX 6 10 0 -2
BITMAP
40
F0
40
78
44
44
44
44
08
10
ENDCHAR
STARTCHAR 0453
ENCODING 1107
SWIDTH 500 0
DWIDTH 5 0
BBX 4 8 1 0
BITMAP
20
40
00
F0
80
80
80
80
ENDCHAR
STARTCHAR 0454
ENCODING 1108
SWIDTH 600 0
DWIDTH 6 0
BBX 4 5 1 0
BITMAP
70
80
E0
80
70
ENDCHAR
STARTCHAR 0455
ENCODING 1109
SWIDTH 600 0
DWIDTH 6 0
BBX 4 5 1 0
BITMAP
70
80
60
10
E0
ENDCHAR
STARTCHAR 0456
ENCODING 1110
SWIDTH 300 0
DWIDTH 3 0
BBX 1 7 1 0
BITMAP
80
00
80
80
80
80
80
ENDCHAR
STARTCHAR 0457
ENCODING 1111
SWIDTH 300 0
DWIDTH 3 0
BBX 3 7 0 0
BITMAP
A0
00
40
40
40
40
40
ENDCHAR
STARTCHAR 0458
ENCODING 1112
SWIDTH 300 0
DWIDTH 3 0
BBX 3 9 -1 -2
BITMAP
20
00
60
20
20
20
20
20
C0
ENDCHAR
STARTCHAR 0459
ENCODING 1113
SWIDTH 900 0
DWIDTH 9 0
BBX 8 5 0 0
BITMAP
78
48
4E
49
8E
ENDCHAR
STARTCHAR 045A
ENCODING 1114
SWIDTH 900 0
DWIDTH 9 0
BBX 7 5 1 0
BITMAP
90
90
FC
92
9C
ENDCHAR
STARTCHAR 045B
ENCODING 1115
SWIDTH 700 0
DWIDTH 7 0
BBX 6 8 0 0
BITMAP
40
F0
40
78
44
44
44
44
ENDCHAR
STARTCHAR 045C
ENCODING 1116
SWIDTH 700 0
DWIDTH 7 0
BBX 5 8 1 0
BITMAP
10
20
00
98
A0
E0
90
88
ENDCHAR
STARTCHAR 045E
ENCODING 1118
SWIDTH 600 0
DWIDTH 6 0
BBX 4 10 1 -2
BITMAP
90
60
00
90
90
90
60
20
40
40
ENDCHAR
STARTCHAR 045F
ENCODING 1119
SWIDTH 700 0
DWIDTH 7 0
BBX 5 6 1 -1
BITMAP
88
88
88
88
F8
20
ENDCHAR
STARTCHAR 0490
ENCODING 1168
SWIDTH 600 0
DWIDTH 6 0
BBX 5 9 1 0
BITMAP
08
08
F8
80
80
80
80
80
80
ENDCHAR
STARTCHAR 0491
ENCODING 1169
SWIDTH 500 0
DWIDTH 5 0
BBX 4 7 1 0
BITMAP
10
10
F0
80
80
80
80
ENDCHAR
STARTCHAR 1E80
ENCODING 7808
SWIDTH 1100 0
DWIDTH 11 0
BBX 9 10 1 0
BITMAP
1000
0800
0000
8880
8880
5500
5500
5500
2200
2200
ENDCHAR
STARTCHAR 1E81
ENCODING 7809
SWIDTH 700 0
DWIDTH 7 0
BBX 5 8 1 0
BITMAP
40
20
00
88
A8
A8
50
50
ENDCHAR
STARTCHAR 1E82
ENCODING 7810
SWIDTH 1100 0
DWIDTH 11 0
BBX 9 10 1 0
BITMAP
0400
0800
0000
8880
8880
5500
5500
5500
2200
2200
ENDCHAR
STARTCHAR 1E83
ENCODING 7811
SWIDTH 700 0
DWIDTH 7 0
BBX 5 8 1 0
BITMAP
10
20
00
88
A8
A8
50
50
ENDCHAR
STARTCHAR 1E84
ENCODING 7812
SWIDTH 1100 0
DWIDTH 11 0
BBX 9 9 1 0
BITMAP
1400
0000
8880
8880
5500
5500
5500
2200
2200
ENDCHAR
STARTCHAR 1E85
ENCODING 7813
SWIDTH 700 0
DWIDTH 7 0
BBX 5 7 1 0
BITMAP
50
00
88
A8
A8
50
50
ENDCHAR
STARTCHAR 1EA0
ENCODING 7840
SWIDTH 700 0
DWIDTH 7 0
BBX 7 9 0 -2
BITMAP
10
28
28
44
7C
44
82
00
10
ENDCHAR
STARTCHAR 1EA1
ENCODING 7841
SWIDTH 700 0
DWIDTH 7 0
BBX 5 7 1 -2
BITMAP
70
08
78
88
78
00
20
ENDCHAR
STARTCHAR 1EA2
ENCODING 7842
SWIDTH 700 0
DWIDTH 7 0
BBX 7 10 0 0
BITMAP
30
10
00
10
28
28
44
7C
44
82
ENDCHAR
STARTCHAR 1EA3
ENCODING 7843
SWIDTH 700 0
DWIDTH 7 0
BBX 5 8 1 0
BITMAP
30
10
00
70
08
78
88
78
ENDCHAR
STARTCHAR 1EA4
ENCODING 7844
SWIDTH 700 0
DWIDTH 7 0
BBX 7 10 0 0
BITMAP
14
28
00
10
28
28
44
7C
44
82
ENDCHAR
STARTCHAR 1EA5
ENCODING 7845
SWIDTH 700 0
DWIDTH 7 0
BBX 5 8 1 0
BITMAP
28
50
00
70
08
78
88
78
ENDCHAR
STARTCHAR 1EA6
ENCODING 7846
SWIDTH 700 0
DWIDTH 7 0
BBX 7 10 0 0
BITMAP
50
28
00
10
28
28
44
7C
44
82
ENDCHAR
STARTCHAR 1EA7
ENCODING 7847
SWIDTH 700 0
DWIDTH 7 0
BBX 5 8 1 0
BITMAP
A0
50
00
70
08
78
88
78
ENDCHAR
STARTCHAR 1EA8
ENCODING 7848
SWIDTH 700 0
DWIDTH 7 0
BBX 7 10 0 0
BITMAP
16
2A
00
10
28
28
44
7C
44
82
ENDCHAR
STARTCHAR 1EA9
ENCODING 7849
SWIDTH 700 0
DWIDTH 7 0
BBX 6 9 1 0
BITMAP
0C
24
50
00
70
08
78
88
78
ENDCHAR
STARTCHAR 1EAA
ENCODING 7850
SWIDTH 700 0
DWIDTH 7 0
BBX 7 10 0 0
BITMAP
38
10
00
10
28
28
44
7C
44
82
ENDCHAR
STARTCHAR 1EAB
ENCODING 7851
SWIDTH 700 0
DWIDTH 7 0
BBX 5 10 1 0
BITMAP
50
70
20
50
00
70
08
78
88
78
ENDCHAR
STARTCHAR 1EAC
ENCODING 7852
SWIDTH 700 0
DWIDTH 7 0
BBX 7 12 0 -2
BITMAP
10
28
00
10
28
28
44
7C
44
82
00
10
ENDCHAR
STARTCHAR 1EAD
ENCODING 7853
SWIDTH 700 0
DWIDTH 7 0
BBX 5 10 1 -2
BITMAP
20
50
00
70
08
78
88
78
00
20
ENDCHAR
STARTCHAR 1EAE
ENCODING 7854
SWIDTH 700 0
DWIDTH 7 0
BBX 7 10 0 0
BITMAP
08
3C
00
10
28
28
44
7C
44
82
ENDCHAR
STARTCHAR 1EAF
ENCODING 7855
SWIDTH 700 0
DWIDTH 7 0
BBX 5 9 1 0
BITMAP
20
48
30
00
70
08
78
88
78
ENDCHAR
STARTCHAR 1EB0
ENCODING 7856
SWIDTH 700 0
DWIDTH 7 0
BBX 7 10 0 0
BITMAP
10
3C
00
10
28
28
44
7C
44
82
ENDCHAR
STARTCHAR 1EB1
ENCODING 7857
SWIDTH 700 0
DWIDTH 7 0
BBX 5 9 1 0
BITMAP
10
48
30
00
70
08
78
88
78
ENDCHAR
STARTCHAR 1EB2
ENCODING 7858
SWIDTH 700 0
DWIDTH 7 0
BBX 7 10 0 0
BITMAP
18
3C
00
10
28
28
44
7C
44
82
ENDCHAR
STARTCHAR 1EB3
ENCODING 7859
SWIDTH 700 0
DWIDTH 7 0
BBX 5 10 1 0
BITMAP
30
10
48
30
00
70
08
78
88
78
ENDCHAR
STARTCHAR 1EB4
ENCODING 7860
SWIDTH 700 0
DWIDTH 7 0
BBX 7 10 0 0
BITMAP
3C
3C
00
10
28
28
44
7C
44
82
ENDCHAR
STARTCHAR 1EB5
ENCODING 7861
SWIDTH 700 0
DWIDTH 7 0
BBX 5 10 1 0
BITMAP
68
58
48
30
00
70
08
78
88
78
ENDCHAR
STARTCHAR 1EB6
ENCODING 7862
SWIDTH 700 0
DWIDTH 7 0
BBX 7 12 0 -2
BITMAP
24
18
00
10
28
28
44
7C
44
82
00
10
ENDCHAR
STARTCHAR 1EB7
ENCODING 7863
SWIDTH 700 0
DWIDTH 7 0
BBX 5 10 1 -2
BITMAP
48
30
00
70
08
78
88
78
00
20
ENDCHAR
STARTCHAR 1EB8
ENCODING 7864
SWIDTH 600 0
DWIDTH 6 0
BBX 4 9 1 -2
BITMAP
F0
80
80
F0
80
80
F0
00
20
ENDCHAR
STARTCHAR 1EB9
ENCODING 7865
SWIDTH 700 0
DWIDTH 7 0
BBX 5 7 1 -2
BITMAP
70
88
F8
80
78
00
20
ENDCHAR
STARTCHAR 1EBA
ENCODING 7866
SWIDTH 600 0
DWIDTH 6 0
BBX 4 10 1 0
BITMAP
60
20
00
F0
80
80
F0
80
80
F0
ENDCHAR
STARTCHAR 1EBB
ENCODING 7867
SWIDTH 700 0
DWIDTH 7 0
BBX 5 8 1 0
BITMAP
60
20
00
70
88
F8
80
78
ENDCHAR
STARTCHAR 1EBC
ENCODING 7868
SWIDTH 600 0
DWIDTH 6 0
BBX 4 10 1 0
BITMAP
D0
B0
00
F0
80
80
F0
80
80
F0
ENDCHAR
STARTCHAR 1EBD
ENCODING 7869
SWIDTH 700 0
DWIDTH 7 0
BBX 5 8 1 0
BITMAP
68
58
00
70
88
F8
80
78
ENDCHAR
STARTCHAR 1EBE
ENCODING 7870
SWIDTH 600 0
DWIDTH 6 0
BBX 5 10 1 0
BITMAP
28
50
00
F0
80
80
F0
80
80
F0
ENDCHAR
STARTCHAR 1EBF
ENCODING 7871
SWIDTH 700 0
DWIDTH 7 0
BBX 5 8 1 0
BITMAP
28
50
00
70
88
F8
80
78
ENDCHAR
STARTCHAR 1EC0
ENCODING 7872
SWIDTH 600 0
DWIDTH 6 0
BBX 4 10 1 0
BITMAP
A0
50
00
F0
80
80
F0
80
80
F0
ENDCHAR
STARTCHAR 1EC1
ENCODING 7873
SWIDTH 700 0
DWIDTH 7 0
BBX 5 8 1 0
BITMAP
A0
50
00
70
88
F8
80
78
ENDCHAR
STARTCHAR 1EC2
ENCODING 7874
SWIDTH 600 0
DWIDTH 6 0
BBX 5 10 1 0
BITMAP
58
A8
00
F0
80
80
F0
80
80
F0
ENDCHAR
STARTCHAR 1EC3
ENCODING 7875
SWIDTH 700 0
DWIDTH 7 0
BBX 6 9 1 0
BITMAP
0C
24
50
00
70
88
F8
80
78
ENDCHAR
STARTCHAR 1EC4
ENCODING 7876
SWIDTH 600 0
DWIDTH 6 0
BBX 4 10 1 0
BITMAP
70
20
00
F0
80
80
F0
80
80
F0
ENDCHAR
STARTCHAR 1EC5
ENCODING 7877
SWIDTH 700 0
DWIDTH 7 0
BBX 5 10 1 0
BITMAP
50
70
20
50
00
70
88
F8
80
78
ENDCHAR
STARTCHAR 1EC6
ENCODING 7878
SWIDTH 600 0
DWIDTH 6 0
BBX 4 12 1 -2
BITMAP
20
50
00
F0
80
80
F0
80
80
F0
00
20
ENDCHAR
STARTCHAR 1EC7
ENCODING 7879
SWIDTH 700 0
DWIDTH 7 0
BBX 5 10 1 -2
BITMAP
20
50
00
70
88
F8
80
78
00
20
ENDCHAR
STARTCHAR 1EC8
ENCODING 7880
SWIDTH 500 0
DWIDTH 5 0
BBX 3 10 1 0
BITMAP
C0
40
00
E0
40
40
40
40
40
E0
ENDCHAR
STARTCHAR 1EC9
ENCODING 7881
SWIDTH 300 0
DWIDTH 3 0
BBX 2 8 0 0
BITMAP
C0
40
00
40
40
40
40
40
ENDCHAR
STARTCHAR 1ECA
ENCODING 7882
SWIDTH 500 0
DWIDTH 5 0
BBX 3 9 1 -2
BITMAP
E0
40
40
40
40
40
E0
00
40
ENDCHAR
STARTCHAR 1ECB
ENCODING 7883
SWIDTH 300 0
DWIDTH 3 0
BBX 1 9 1 -2
BITMAP
80
00
80
80
80
80
80
00
80
ENDCHAR
STARTCHAR 1ECC
ENCODING 7884
SWIDTH 900 0
DWIDTH 9 0
BBX 7 9 1 -2
BITMAP
38
44
82
82
82
44
38
00
10
ENDCHAR
STARTCHAR 1ECD
ENCODING 7885
SWIDTH 700 0
DWIDTH 7 0
BBX 5 7 1 -2
BITMAP
70
88
88
88
70
00
20
ENDCHAR
STARTCHAR 1ECE
ENCODING 7886
SWIDTH 900 0
DWIDTH 9 0
BBX 7 10 1 0
BITMAP
30
10
00
38
44
82
82
82
44
38
ENDCHAR
STARTCHAR 1ECF
ENCODING 7887
SWIDTH 700 0
DWIDTH 7 0
BBX 5 8 1 0
BITMAP
60
20
00
70
88
88
88
70
ENDCHAR
STARTCHAR 1ED0
ENCODING 7888
SWIDTH 900 0
DWIDTH 9 0
BBX 7 10 1 0
BITMAP
14
28
00
38
44
82
82
82
44
38
ENDCHAR
STARTCHAR 1ED1
ENCODING 7889
SWIDTH 700 0
DWIDTH 7 0
BBX 5 8 1 0
BITMAP
28
50
00
70
88
88
88
70
ENDCHAR
STARTCHAR 1ED2
ENCODING 7890
SWIDTH 900 0
DWIDTH 9 0
BBX 7 10 1 0
BITMAP
50
28
00
38
44
82
82
82
44
38
ENDCHAR
STARTCHAR 1ED3
ENCODING 7891
SWIDTH 700 0
DWIDTH 7 0
BBX 5 8 1 0
BITMAP
A0
50
00
70
88
88
88
70
ENDCHAR
STARTCHAR 1ED4
ENCODING 7892
SWIDTH 900 0
DWIDTH 9 0
BBX 7 10 1 0
BITMAP
16
2A
00
38
44
82
82
82
44
38
ENDCHAR
STARTCHAR 1ED5
ENCODING 7893
SWIDTH 700 0
DWIDTH 7 0
BBX 6 9 1 0
BITMAP
0C
24
50
00
70
88
88
88
70
ENDCHAR
STARTCHAR 1ED6
ENCODING 7894
SWIDTH 900 0
DWIDTH 9 0
BBX 7 10 1 0
BITMAP
38
10
00
38
44
82
82
82
44
38
ENDCHAR
STARTCHAR 1ED7
ENCODING 7895
SWIDTH 700 0
DWIDTH 7 0
BBX 5 10 1 0
BITMAP
50
70
20
50
00
70
88
88
88
70
ENDCHAR
STARTCHAR 1ED8
ENCODING 7896
SWIDTH 900 0
DWIDTH 9 0
BBX 7 12 1 -2
BITMAP
10
28
00
38
44
82
82
82
44
38
00
10
ENDCHAR
STARTCHAR 1ED9
ENCODING 7897
SWIDTH 700 0
DWIDTH 7 0
BBX 5 10 1 -2
BITMAP
20
50
00
70
88
88
88
70
00
20
ENDCHAR
STARTCHAR 1EDA
ENCODING 7898
SWIDTH 900 0
DWIDTH 9 0
BBX 8 10 1 0
BITMAP
08
10
00
39
45
82
82
82
44
38
ENDCHAR
STARTCHAR 1EDB
ENCODING 7899
SWIDTH 700 0
DWIDTH 7 0
BBX 6 8 1 0
BITMAP
10
20
04
78
88
88
88
70
ENDCHAR
STARTCHAR 1EDC
ENCODING 7900
SWIDTH 900 0
DWIDTH 9 0
BBX 8 10 1 0
BITMAP
20
10
00
39
45
82
82
82
44
38
ENDCHAR
STARTCHAR 1EDD
ENCODING 7901
SWIDTH 700 0
DWIDTH 7 0
BBX 6 8 1 0
BITMAP
40
20
04
78
88
88
88
70
ENDCHAR
STARTCHAR 1EDE
ENCODING 7902
SWIDTH 900 0
DWIDTH 9 0
BBX 8 10 1 0
BITMAP
30
10
00
39
45
82
82
82
44
38
ENDCHAR
STARTCHAR 1EDF
ENCODING 7903
SWIDTH 700 0
DWIDTH 7 0
BBX 6 8 1 0
BITMAP
60
20
04
78
88
88
88
70
ENDCHAR
STARTCHAR 1EE0
ENCODING 7904
SWIDTH 900 0
DWIDTH 9 0
BBX 8 10 1 0
BITMAP
34
2C
00
39
45
82
82
82
44
38
ENDCHAR
STARTCHAR 1EE1
ENCODING 7905
SWIDTH 700 0
DWIDTH 7 0
BBX 6 8 1 0
BITMAP
D0
B0
04
78
88
88
88
70
ENDCHAR
STARTCHAR 1EE2
ENCODING 7906
SWIDTH 900 0
DWIDTH 9 0
BBX 8 9 1 -2
BITMAP
39
45
82
82
82
44
38
00
10
ENDCHAR
STARTCHAR 1EE3
ENCODING 7907
SWIDTH 700 0
DWIDTH 7 0
BBX 6 8 1 -2
BITMAP
04
78
88
88
88
70
00
20
ENDCHAR
STARTCHAR 1EE4
ENCODING 7908
SWIDTH 800 0
DWIDTH 8 0
BBX 6 9 1 -2
BITMAP
84
84
84
84
84
84
78
00
10
ENDCHAR
STARTCHAR 1EE5
ENCODING 7909
SWIDTH 700 0
DWIDTH 7 0
BBX 5 7 1 -2
BITMAP
88
88
88
88
78
00
20
ENDCHAR
STARTCHAR 1EE6
ENCODING 7910
SWIDTH 800 0
DWIDTH 8 0
BBX 6 10 1 0
BITMAP
30
10
00
84
84
84
84
84
84
78
ENDCHAR
STARTCHAR 1EE7
ENCODING 7911
SWIDTH 700 0
DWIDTH 7 0
BBX 5 8 1 0
BITMAP
60
20
00
88
88
88
88
78
ENDCHAR
STARTCHAR 1EE8
ENCODING 7912
SWIDTH 800 0
DWIDTH 8 0
BBX 8 10 1 0
BITMAP
08
10
01
86
84
84
84
84
84
78
ENDCHAR
STARTCHAR 1EE9
ENCODING 7913
SWIDTH 700 0
DWIDTH 7 0
BBX 7 8 1 0
BITMAP
10
20
02
8C
88
88
88
78
ENDCHAR
STARTCHAR 1EEA
ENCODING 7914
SWIDTH 800 0
DWIDTH 8 0
BBX 8 10 1 0
BITMAP
20
10
01
86
84
84
84
84
84
78
ENDCHAR
STARTCHAR 1EEB
ENCODING 7915
SWIDTH 700 0
DWIDTH 7 0
BBX 7 8 1 0
BITMAP
40
20
02
8C
88
88
88
78
ENDCHAR
STARTCHAR 1EEC
ENCODING 7916
SWIDTH 800 0
DWIDTH 8 0
BBX 8 10 1 0
BITMAP
30
10
01
86
84
84
84
84
84
78
ENDCHAR
STARTCHAR 1EED
ENCODING 7917
SWIDTH 700 0
DWIDTH 7 0
BBX 7 8 1 0
BITMAP
60
20
02
8C
88
88
88
78
ENDCHAR
STARTCHAR 1EEE
ENCODING 7918
SWIDTH 800 0
DWIDTH 8 0
BBX 8 10 1 0
BITMAP
68
58
01
86
84
84
84
84
84
78
ENDCHAR
STARTCHAR 1EEF
ENCODING 7919
SWIDTH 700 0
DWIDTH 7 0
BBX 7 8 1 0
BITMAP
68
58
02
8C
88
88
88
78
ENDCHAR
STARTCHAR 1EF0
ENCODING 7920
SWIDTH 800 0
DWIDTH 8 0
BBX 8 10 1 -2
BITMAP
01
86
84
84
84
84
84
78
00
10
ENDCHAR
STARTCHAR 1EF1
ENCODING 7921
SWIDTH 700 0
DWIDTH 7 0
BBX 7 8 1 -2
BITMAP
02
8C
88
88
88
78
00
20
ENDCHAR
STARTCHAR 1EF2
ENCODING 7922
SWIDTH 700 0
DWIDTH 7 0
BBX 7 10 0 0
BITMAP
20
10
00
82
44
28
10
10
10
10
ENDCHAR
STARTCHAR 1EF3
ENCODING 7923
SWIDTH 600 0
DWIDTH 6 0
BBX 4 10 1 -2
BITMAP
40
20
00
90
90
90
60
20
40
40
ENDCHAR
STARTCHAR 1EF4
ENCODING 7924
SWIDTH 700 0
DWIDTH 7 0
BBX 7 9 0 -2
BITMAP
82
44
28
10
10
10
10
00
10
ENDCHAR
STARTCHAR 1EF5
ENCODING 7925
SWIDTH 600 0
DWIDTH 6 0
BBX 4 7 1 -2
BITMAP
90
90
90
60
20
40
50
ENDCHAR
STARTCHAR 1EF6
ENCODING 7926
SWIDTH 700 0
DWIDTH 7 0
BBX 7 10 0 0
BITMAP
30
10
00
82
44
28
10
10
10
10
ENDCHAR
STARTCHAR 1EF7
ENCODING 7927
SWIDTH 600 0
DWIDTH 6 0
BBX 4 10 1 -2
BITMAP
60
20
00
90
90
90
60
20
40
40
ENDCHAR
STARTCHAR 1EF8
ENCODING 7928
SWIDTH 700 0
DWIDTH 7 0
BBX 7 10 0 0
BITMAP
34
2C
00
82
44
28
10
10
10
10
ENDCHAR
STARTCHAR 1EF9
ENCODING 7929
SWIDTH 600 0
DWIDTH 6 0
BBX 4 10 1 -2
BITMAP
D0
B0
00
90
90
90
60
20
40
40
ENDCHAR
STARTCHAR 2013
ENCODING 8211
SWIDTH 700 0
DWIDTH 7 0
BBX 5 1 1 3
BITMAP
F8
ENDCHAR
STARTCHAR 2014
ENCODING 8212
SWIDTH 1000 0
DWIDTH 10 0
BBX 8 1 1 3
BITMAP
FF
ENDCHAR
STARTCHAR 2015
ENCODING 8213
SWIDTH 1000 0
DWIDTH 10 0
BBX 8 1 1 3
BITMAP
FF
ENDCHAR
STARTCHAR 2017
ENCODING 8215
SWIDTH 600 0
DWIDTH 6 0
BBX 6 2 0 -2
BITMAP
FC
FC
ENDCHAR
STARTCHAR 2018
ENCODING 8216
SWIDTH 300 0
DWIDTH 3 0
BBX 2 3 0 5
BITMAP
80
80
40
ENDCHAR
STARTCHAR 2019
ENCODING 8217
SWIDTH 300 0
DWIDTH 3 0
BBX 2 3 1 5
BITMAP
40
40
80
ENDCHAR
STARTCHAR 201A
ENCODING 8218
SWIDTH 300 0
DWIDTH 3 0
BBX 2 3 0 -1
BITMAP
40
40
80
ENDCHAR
STARTCHAR 201B
ENCODING 8219
SWIDTH 300 0
DWIDTH 3 0
BBX 2 3 0 5
BITMAP
40
80
80
ENDCHAR
STARTCHAR 201C
ENCODING 8220
SWIDTH 500 0
DWIDTH 5 0
BBX 4 3 0 5
BITMAP
A0
A0
50
ENDCHAR
STARTCHAR 201D
ENCODING 8221
SWIDTH 500 0
DWIDTH 5 0
BBX 4 3 1 5
BITMAP
50
50
A0
ENDCHAR
STARTCHAR 201E
ENCODING 8222
SWIDTH 500 0
DWIDTH 5 0
BBX 4 3 0 -1
BITMAP
50
50
A0
ENDCHAR
STARTCHAR 2020
ENCODING 8224
SWIDTH 700 0
DWIDTH 7 0
BBX 5 7 1 1
BITMAP
20
20
F8
20
20
20
20
ENDCHAR
STARTCHAR 2021
ENCODING 8225
SWIDTH 700 0
DWIDTH 7 0
BBX 5 7 1 1
BITMAP
20
20
F8
20
F8
20
20
ENDCHAR
STARTCHAR 2022
ENCODING 8226
SWIDTH 500 0
DWIDTH 5 0
BBX 4 4 1 1
BITMAP
60
F0
F0
60
ENDCHAR
STARTCHAR 2026
ENCODING 8230
SWIDTH 800 0
DWIDTH 8 0
BBX 7 1 1 0
BITMAP
92
ENDCHAR
STARTCHAR 2030
ENCODING 8240
SWIDTH 1500 0
DWIDTH 15 0
BBX 13 7 1 0
BITMAP
6200
9400
9400
6B30
14C8
14C8
2330
ENDCHAR
STARTCHAR 2032
ENCODING 8242
SWIDTH 400 0
DWIDTH 4 0
BBX 2 3 1 4
BITMAP
40
40
80
ENDCHAR
STARTCHAR 2033
ENCODING 8243
SWIDTH 600 0
DWIDTH 6 0
BBX 4 3 1 4
BITMAP
50
50
A0
ENDCHAR
STARTCHAR 2039
ENCODING 8249
SWIDTH 500 0
DWIDTH 5 0
BBX 3 5 1 1
BITMAP
20
40
80
40
20
ENDCHAR
STARTCHAR 203A
ENCODING 8250
SWIDTH 500 0
DWIDTH 5 0
BBX 3 5 1 1
BITMAP
80
40
20
40
80
ENDCHAR
STARTCHAR 203C
ENCODING 8252
SWIDTH 600 0
DWIDTH 6 0
BBX 4 7 1 0
BITMAP
90
90
90
90
90
00
90
ENDCHAR
STARTCHAR 203E
ENCODING 8254
SWIDTH 600 0
DWIDTH 6 0
BBX 6 1 0 8
BITMAP
FC
ENDCHAR
STARTCHAR 2044
ENCODING 8260
SWIDTH 400 0
DWIDTH 4 0
BBX 5 7 -1 0
BITMAP
08
10
10
20
40
40
80
ENDCHAR
STARTCHAR 207F
ENCODING 8319
SWIDTH 500 0
DWIDTH 5 0
BBX 4 5 0 2
BITMAP
E0
90
90
90
90
ENDCHAR
STARTCHAR 20A3
ENCODING 8355
SWIDTH 600 0
DWIDTH 6 0
BBX 5 7 0 0
BITMAP
78
40
40
78
40
F0
40
ENDCHAR
STARTCHAR 20A4
ENCODING 8356
SWIDTH 700 0
DWIDTH 7 0
BBX 5 7 1 0
BITMAP
38
40
F0
40
F0
40
F8
ENDCHAR
STARTCHAR 20A7
ENCODING 8359
SWIDTH 1200 0
DWIDTH 12 0
BBX 10 7 1 0
BITMAP
E000
9800
9FC0
EA00
8980
8840
8B80
ENDCHAR
STARTCHAR 20AB
ENCODING 8363
SWIDTH 700 0
DWIDTH 7 0
BBX 6 10 1 -2
BITMAP
08
3C
08
78
88
88
88
78
00
78
ENDCHAR
STARTCHAR 20AC
ENCODING 8364
SWIDTH 600 0
DWIDTH 6 0
BBX 5 7 0 0
BITMAP
38
40
F0
40
F0
40
38
ENDCHAR
STARTCHAR 2105
ENCODING 8453
SWIDTH 1100 0
DWIDTH 11 0
BBX 9 7 1 0
BITMAP
6200
8400
8400
6B00
1480
1480
2300
ENDCHAR
STARTCHAR 2113
ENCODING 8467
SWIDTH 300 0
DWIDTH 3 0
BBX 3 7 0 0
BITMAP
60
60
60
40
C0
40
60
ENDCHAR
STARTCHAR 2116
ENCODING 8470
SWIDTH 1200 0
DWIDTH 12 0
BBX 10 7 1 0
BITMAP
C980
CA40
AA40
A980
9800
9980
8800
ENDCHAR
STARTCHAR 2122
ENCODING 8482
SWIDTH 1000 0
DWIDTH 10 0
BBX 8 3 1 4
BITMAP
E9
4F
49
ENDCHAR
STARTCHAR 2126
ENCODING 8486
SWIDTH 800 0
DWIDTH 8 0
BBX 6 7 1 0
BITMAP
78
84
84
84
84
48
CC
ENDCHAR
STARTCHAR 212E
ENCODING 8494
SWIDTH 700 0
DWIDTH 7 0
BBX 5 7 1 0
BITMAP
70
88
88
F8
80
80
78
ENDCHAR
STARTCHAR 215B
ENCODING 8539
SWIDTH 1000 0
DWIDTH 10 0
BBX 9 7 0 0
BITMAP
4200
C400
4400
4B80
1100
1280
2380
ENDCHAR
STARTCHAR 215C
ENCODING 8540
SWIDTH 1000 0
DWIDTH 10 0
BBX 8 7 1 0
BITMAP
E4
48
28
F7
22
25
47
ENDCHAR
STARTCHAR 215D
ENCODING 8541
SWIDTH 1000 0
DWIDTH 10 0
BBX 8 7 1 0
BITMAP
E4
C8
28
D7
22
25
47
ENDCHAR
STARTCHAR 215E
ENCODING 8542
SWIDTH 1000 0
DWIDTH 10 0
BBX 8 7 1 0
BITMAP
E4
28
48
57
22
25
47
ENDCHAR
STARTCHAR 2202
ENCODING 8706
SWIDTH 600 0
DWIDTH 6 0
BBX 5 7 1 0
BITMAP
30
48
08
78
88
88
70
ENDCHAR
STARTCHAR 2206
ENCODING 8710
SWIDTH 700 0
DWIDTH 7 0
BBX 7 7 0 0
BITMAP
10
28
28
44
44
44
FE
ENDCHAR
STARTCHAR 220F
ENCODING 8719
SWIDTH 800 0
DWIDTH 8 0
BBX 6 8 1 -1
BITMAP
FC
48
48
48
48
48
48
48
ENDCHAR
STARTCHAR 2211
ENCODING 8721
SWIDTH 700 0
DWIDTH 7 0
BBX 6 8 1 -1
BITMAP
FC
40
20
10
10
20
40
FC
ENDCHAR
STARTCHAR 2212
ENCODING 8722
SWIDTH 800 0
DWIDTH 8 0
BBX 6 1 1 3
BITMAP
FC
ENDCHAR
STARTCHAR 2215
ENCODING 8725
SWIDTH 400 0
DWIDTH 4 0
BBX 5 7 -1 0
BITMAP
08
10
10
20
40
40
80
ENDCHAR
STARTCHAR 2219
ENCODING 8729
SWIDTH 400 0
DWIDTH 4 0
BBX 1 2 1 3
BITMAP
80
80
ENDCHAR
STARTCHAR 221A
ENCODING 8730
SWIDTH 800 0
DWIDTH 8 0
BBX 7 10 1 -1
BITMAP
02
04
04
04
C8
48
50
30
30
20
ENDCHAR
STARTCHAR 221E
ENCODING 8734
SWIDTH 1000 0
DWIDTH 10 0
BBX 8 5 1 1
BITMAP
66
99
99
99
66
ENDCHAR
STARTCHAR 222B
ENCODING 8747
SWIDTH 700 0
DWIDTH 7 0
BBX 5 10 1 -2
BITMAP
18
20
20
20
20
20
20
20
20
C0
ENDCHAR
STARTCHAR 2248
ENCODING 8776
SWIDTH 800 0
DWIDTH 8 0
BBX 6 4 1 1
BITMAP
64
98
64
98
ENDCHAR
STARTCHAR 2260
ENCODING 8800
SWIDTH 800 0
DWIDTH 8 0
BBX 6 7 1 0
BITMAP
10
10
FC
20
FC
20
20
ENDCHAR
STARTCHAR 2264
ENCODING 8804
SWIDTH 800 0
DWIDTH 8 0
BBX 6 6 1 0
BITMAP
04
38
C0
38
04
FC
ENDCHAR
STARTCHAR 2265
ENCODING 8805
SWIDTH 800 0
DWIDTH 8 0
BBX 6 6 1 0
BITMAP
80
70
0C
70
80
FC
ENDCHAR
STARTCHAR 25A1
ENCODING 9633
SWIDTH 600 0
DWIDTH 6 0
BBX 5 5 0 0
BITMAP
F8
88
88
88
F8
ENDCHAR
STARTCHAR 25AA
ENCODING 9642
SWIDTH 400 0
DWIDTH 4 0
BBX 2 2 1 2
BITMAP
C0
C0
ENDCHAR
STARTCHAR 25AB
ENCODING 9643
SWIDTH 400 0
DWIDTH 4 0
BBX 2 2 1 2
BITMAP
C0
C0
ENDCHAR
STARTCHAR 25CA
ENCODING 9674
SWIDTH 800 0
DWIDTH 8 0
BBX 7 7 1 0
BITMAP
10
28
44
82
44
28
10
ENDCHAR
STARTCHAR 25CF
ENCODING 9679
SWIDTH 600 0
DWIDTH 6 0
BBX 4 4 1 1
BITMAP
60
F0
F0
60
ENDCHAR
STARTCHAR 25E6
ENCODING 9702
SWIDTH 400 0
DWIDTH 4 0
BBX 2 2 1 3
BITMAP
C0
C0
ENDCHAR
STARTCHAR F001
ENCODING 61441
SWIDTH 600 0
DWIDTH 6 0
BBX 5 8 0 0
BITMAP
30
48
40
F8
48
48
48
48
ENDCHAR
STARTCHAR F002
ENCODING 61442
SWIDTH 600 0
DWIDTH 6 0
BBX 5 8 0 0
BITMAP
38
48
48
E8
48
48
48
48
ENDCHAR
STARTCHAR F004
ENCODING 61444
SWIDTH 200 0
DWIDTH 2 0
BBX 2 3 0 -2
BITMAP
40
40
80
ENDCHAR
STARTCHAR F005
ENCODING 61445
SWIDTH 600 0
DWIDTH 6 0
BBX 3 2 2 -2
BITMAP
20
C0
ENDCHAR
STARTCHAR F006
ENCODING 61446
SWIDTH 500 0
DWIDTH 5 0
BBX 2 4 1 3
BITMAP
40
C0
40
40
ENDCHAR
STARTCHAR F007
ENCODING 61447
SWIDTH 500 0
DWIDTH 5 0
BBX 3 4 1 3
BITMAP
E0
20
40
E0
ENDCHAR
STARTCHAR F008
ENCODING 61448
SWIDTH 500 0
DWIDTH 5 0
BBX 3 4 1 3
BITMAP
E0
40
20
E0
ENDCHAR
STARTCHAR F009
ENCODING 61449
SWIDTH 500 0
DWIDTH 5 0
BBX 4 4 1 3
BITMAP
60
A0
F0
20
ENDCHAR
STARTCHAR F00A
ENCODING 61450
SWIDTH 500 0
DWIDTH 5 0
BBX 3 4 1 3
BITMAP
E0
C0
20
C0
ENDCHAR
STARTCHAR F00B
ENCODING 61451
SWIDTH 500 0
DWIDTH 5 0
BBX 3 4 1 3
BITMAP
E0
20
40
40
ENDCHAR
STARTCHAR F00C
ENCODING 61452
SWIDTH 500 0
DWIDTH 5 0
BBX 3 4 1 3
BITMAP
E0
40
A0
E0
ENDCHAR
STARTCHAR F00D
ENCODING 61453
SWIDTH 0 0
DWIDTH 0 0
BBX 0 0 0 0
BITMAP
ENDCHAR
STARTCHAR FB01
ENCODING 64257
SWIDTH 600 0
DWIDTH 6 0
BBX 5 8 0 0
BITMAP
30
48
40
F8
48
48
48
48
ENDCHAR
STARTCHAR FB02
ENCODING 64258
SWIDTH 600 0
DWIDTH 6 0
BBX 5 8 0 0
BITMAP
38
48
48
E8
48
48
48
48
ENDCHAR
ENDFONT
